<?xml version="1.0" encoding="UTF-8"?>
<svg version="1.1" xmlns="http://www.w3.org/2000/svg" width="409" height="133">
<path d="M0 0 C-0.34209176 2.91025889 -0.59757439 4.57260287 -2.63671875 6.73828125 C-3.65185547 7.51751953 -3.65185547 7.51751953 -4.6875 8.3125 C-11.64313709 14.05683225 -16.33725298 20.11201595 -17.37109375 29.296875 C-17.52608469 37.35640391 -16.74766441 43.34280665 -12 50 C-6.39544127 55.75204711 0.43258453 57.54279375 8.22265625 58.06640625 C15.59211564 57.89020258 22.42309899 54.67551232 27.55859375 49.3984375 C30.03667348 46.59283102 32.2115389 43.74056671 34.1875 40.5625 C34.785625 39.716875 35.38375 38.87125 36 38 C36.99 38 37.98 38 39 38 C39.49147053 50.79643637 38.48406188 59.21531543 30 69 C29.4740625 69.62003906 28.948125 70.24007812 28.40625 70.87890625 C20.89431546 79.08179703 10.75792993 82.88467005 -0.1875 83.375 C-12.26389652 83.09065271 -22.30147203 78.30526801 -30.99609375 70.12109375 C-40.12048649 60.40803051 -42.49947988 50.33381716 -42.27734375 37.41015625 C-41.77129162 25.69039178 -36.52874206 17.04405882 -28.125 9.25 C-19.72684315 2.24089191 -10.81875442 -0.38638409 0 0 Z " fill="#0396EF" transform="translate(46,39)"/>
<path d="M0 0 C4.44703583 0.08319285 8.67081705 0.33281584 13.046875 1.23046875 C13.046875 2.55046875 13.046875 3.87046875 13.046875 5.23046875 C12.386875 5.23046875 11.726875 5.23046875 11.046875 5.23046875 C10.77391602 6.10396973 10.50095703 6.9774707 10.21972656 7.87744141 C9.11059006 11.04831584 7.81577169 13.89466272 6.28125 16.87890625 C5.45089233 18.49381958 5.45089233 18.49381958 4.60375977 20.14135742 C4.00748779 21.28451416 3.41121582 22.4276709 2.796875 23.60546875 C2.49063202 24.19373444 2.18438904 24.78200012 1.86886597 25.38809204 C-2.70909566 34.16443147 -7.44689427 42.84120211 -12.390625 51.41796875 C-12.94459961 52.38976074 -13.49857422 53.36155273 -14.06933594 54.36279297 C-23.41210068 70.33057992 -23.41210068 70.33057992 -31.77734375 72.83203125 C-38.50471634 74.06397381 -44.02944974 73.97173734 -49.953125 70.23046875 C-49.29893401 65.16048856 -47.0984841 60.81056098 -44.953125 56.23046875 C-43 56.78385417 -41.046875 57.33723958 -39.09375 57.890625 C-36.73353704 58.26533034 -35.20893449 57.95700199 -32.953125 57.23046875 C-31.23374953 51.20254064 -32.96021311 46.32203214 -34.578125 40.48046875 C-38.01142076 27.50799236 -40.54798424 14.42681627 -42.953125 1.23046875 C-37.343125 1.23046875 -31.733125 1.23046875 -25.953125 1.23046875 C-24.94224258 5.22804925 -23.94065183 9.22711242 -22.953125 13.23046875 C-22.75203125 14.03871094 -22.5509375 14.84695312 -22.34375 15.6796875 C-21.41079295 19.61648356 -20.77817487 23.47336046 -20.3984375 27.50390625 C-20.31352051 28.39255371 -20.22860352 29.28120117 -20.14111328 30.19677734 C-20.07907715 30.86789551 -20.01704102 31.53901367 -19.953125 32.23046875 C-19.68161621 31.71250732 -19.41010742 31.1945459 -19.13037109 30.66088867 C-10.33686902 13.89443772 -10.33686902 13.89443772 -6.453125 6.66796875 C-5.78796875 5.42853516 -5.78796875 5.42853516 -5.109375 4.1640625 C-2.81820699 0.33254842 -2.81820699 0.33254842 0 0 Z " fill="#052C5B" transform="translate(391.953125,49.76953125)"/>
<path d="M0 0 C4.14349898 4.42925753 5.01358864 10.08038566 5 16 C4.30025443 21.36871877 3.22738553 26.63934987 2.125 31.9375 C1.83868264 33.37281574 1.5535171 34.80836176 1.26953125 36.24414062 C-0.81086508 46.62173016 -0.81086508 46.62173016 -2 49 C-6.62 49 -11.24 49 -16 49 C-16.33 48.01 -16.66 47.02 -17 46 C-17.94875 46.639375 -18.8975 47.27875 -19.875 47.9375 C-25.00037399 50.83670145 -30.44572273 51.69970964 -36.2421875 50.55859375 C-40.84616348 49.038413 -43.92116353 46.82522107 -47 43 C-48.96767371 38.61057404 -48.62414745 33.17203312 -47.31640625 28.62109375 C-45.24415418 23.40177008 -43.19189365 20.54504591 -38 18 C-29.47547048 14.59018819 -19.89995593 15.63077601 -11 17 C-11.30834699 13.98283157 -11.30834699 13.98283157 -13 11 C-16.70871537 9.06605615 -20.37204425 8.67596422 -24.453125 9.48828125 C-28.1431298 10.67959075 -31.5521656 12.23346912 -35 14 C-35.86627399 12.40233897 -36.71766465 10.79660056 -37.5625 9.1875 C-38.03816406 8.29417969 -38.51382813 7.40085937 -39.00390625 6.48046875 C-40 4 -40 4 -39 1 C-27.92760627 -6.77423389 -11.12234067 -8.30496137 0 0 Z M-32 31 C-31.65772428 33.97065509 -31.65772428 33.97065509 -31 37 C-28.67404054 38.16297973 -27.21276769 38.16600691 -24.625 38.1875 C-23.85414063 38.20167969 -23.08328125 38.21585938 -22.2890625 38.23046875 C-19.71251912 37.97105568 -18.17574327 37.39340154 -16 36 C-13.85190829 32.77786243 -13.70613847 31.72224599 -14 28 C-15.78933876 26.21066124 -18.3301621 26.74356941 -20.75 26.6875 C-25.75621485 26.70537934 -28.55285394 27.06040451 -32 31 Z " fill="#052C5C" transform="translate(197,54)"/>
<path d="M0 0 C3.30189775 2.27742501 5.75578452 4.63367678 8 8 C7.97265625 9.953125 7.97265625 9.953125 7 12 C4.49609375 13.921875 4.49609375 13.921875 1.4375 15.75 C0.42558594 16.36359375 -0.58632812 16.9771875 -1.62890625 17.609375 C-2.80259766 18.29773438 -2.80259766 18.29773438 -4 19 C-5.49739583 17.73046875 -6.99479167 16.4609375 -8.4921875 15.19140625 C-11.24673265 13.01488742 -12.88410161 12.88211325 -16.3125 13.1875 C-20.58827371 13.71681604 -22.94050551 14.84779356 -26 18 C-28.28748482 21.43122724 -28.32535381 22.94887104 -28.375 27 C-28.41753906 28.5778125 -28.41753906 28.5778125 -28.4609375 30.1875 C-28.26562494 33.08244375 -28.26562494 33.08244375 -26.203125 34.8125 C-22.83239311 36.62934839 -19.77876254 37.35225752 -16 37 C-12.47639335 35.63974729 -9.24664232 33.92270416 -6 32 C-4.68113228 33.09655288 -3.37009943 34.20253423 -2.0625 35.3125 C-1.33160156 35.92738281 -0.60070312 36.54226562 0.15234375 37.17578125 C2 39 2 39 3 42 C2.505 42.99 2.505 42.99 2 44 C1.34 44 0.68 44 0 44 C0 44.66 0 45.32 0 46 C-6.3362893 51.25777197 -13.74409026 53.49501699 -21.92578125 53.25390625 C-28.77912378 52.41498485 -36.00458087 49.7359533 -40.40625 44.24609375 C-45.09550326 37.28037161 -46.65366259 30.84053032 -45.53125 22.51171875 C-43.8851808 14.72920038 -40.01382398 8.21804387 -34 3 C-23.8174268 -3.32292295 -11.01069649 -6.21809423 0 0 Z " fill="#062E5E" transform="translate(143,52)"/>
<path d="M0 0 C0.66 0.66 1.32 1.32 2 2 C1.79296875 4.0234375 1.79296875 4.0234375 1.1875 6.375 C0.99542969 7.14585938 0.80335938 7.91671875 0.60546875 8.7109375 C0.40566406 9.46632813 0.20585937 10.22171875 0 11 C-0.33440375 12.33306527 -0.66809978 13.66630921 -1 15 C-2.01320313 14.93039063 -2.01320313 14.93039063 -3.046875 14.859375 C-8.62926558 14.51547935 -8.62926558 14.51547935 -13.5625 16.75 C-15.26204424 19.14737401 -15.26204424 19.14737401 -16 23 C-12.04 23 -8.08 23 -4 23 C-4.66 27.29 -5.32 31.58 -6 36 C-10.29 36 -14.58 36 -19 36 C-18.97365479 37.0017627 -18.94730957 38.00352539 -18.92016602 39.03564453 C-18.99993994 42.99701754 -19.51934483 46.54472496 -20.27734375 50.4296875 C-20.40814835 51.10548859 -20.53895294 51.78128967 -20.67372131 52.47756958 C-20.94887123 53.89158246 -21.22718417 55.30498328 -21.50854492 56.71777344 C-21.94018027 58.88847916 -22.36045104 61.06116905 -22.77929688 63.234375 C-24.85744963 73.85744963 -24.85744963 73.85744963 -26 75 C-28.53049402 75.07313567 -31.03304837 75.09247527 -33.5625 75.0625 C-34.27341797 75.05798828 -34.98433594 75.05347656 -35.71679688 75.04882812 C-37.47790013 75.03700864 -39.23896036 75.01907263 -41 75 C-41.44924233 66.54862875 -39.73642988 58.65640719 -38 50.4375 C-37.71012766 49.03337007 -37.42105865 47.62907404 -37.1328125 46.22460938 C-36.43112496 42.81444185 -35.71859758 39.40664945 -35 36 C-37.31 36 -39.62 36 -42 36 C-41.85966889 34.02043559 -41.7125877 32.04134859 -41.5625 30.0625 C-41.48128906 28.96035156 -41.40007812 27.85820313 -41.31640625 26.72265625 C-41 24 -41 24 -40 23 C-37.32941149 22.85884839 -34.67567762 22.95752893 -32 23 C-31.89042969 22.34773438 -31.78085937 21.69546875 -31.66796875 21.0234375 C-30.23130319 13.10425663 -28.40142429 7.39245866 -21.9375 2.26171875 C-15.33127797 -2.04031697 -7.46693538 -1.42446152 0 0 Z " fill="#022B5D" transform="translate(352,28)"/>
<path d="M0 0 C4.95 0 9.9 0 15 0 C16.21245921 4.84983684 15.65227848 8.07167374 15 13 C20.445 13.495 20.445 13.495 26 14 C26.19294408 18.82360189 25.75747614 22.49646738 24 27 C20.04 27.33 16.08 27.66 12 28 C11.49838258 31.62478302 10.99863259 35.24980627 10.5 38.875 C10.28537109 40.42380859 10.28537109 40.42380859 10.06640625 42.00390625 C9.93105469 42.99003906 9.79570312 43.97617188 9.65625 44.9921875 C9.53056641 45.90339355 9.40488281 46.81459961 9.27539062 47.75341797 C8.95944289 49.9536238 8.95944289 49.9536238 9 52 C13.95 51.505 13.95 51.505 19 51 C20.35209795 55.65722627 20.06102674 60.30380339 19 65 C15.88405915 68.11594085 12.44910306 67.74821347 8.1796875 68.01953125 C2.84412351 67.98675752 -1.49185906 67.07245449 -5.6640625 63.625 C-9.11899877 59.61032545 -9.66680245 55.70809178 -9.44140625 50.53125 C-8.45056448 42.60451585 -6.7228722 34.79530938 -5 27 C-7.31 27 -9.62 27 -12 27 C-11.85966889 25.02043559 -11.7125877 23.04134859 -11.5625 21.0625 C-11.48128906 19.96035156 -11.40007812 18.85820313 -11.31640625 17.72265625 C-11 15 -11 15 -10 14 C-7.32941149 13.85884839 -4.67567762 13.95752893 -2 14 C-1.93941406 13.15695313 -1.87882813 12.31390625 -1.81640625 11.4453125 C-1.73261719 10.34960938 -1.64882812 9.25390625 -1.5625 8.125 C-1.48128906 7.03445312 -1.40007812 5.94390625 -1.31640625 4.8203125 C-1 2 -1 2 0 0 Z " fill="#022C5E" transform="translate(257,37)"/>
<path d="M0 0 C1.44715727 3.87186448 0.5441918 6.8232328 -0.4375 10.75 C-0.86869141 12.50570312 -0.86869141 12.50570312 -1.30859375 14.296875 C-1.53675781 15.18890625 -1.76492187 16.0809375 -2 17 C-2.60328125 16.98839844 -3.2065625 16.97679688 -3.828125 16.96484375 C-4.62734375 16.95582031 -5.4265625 16.94679688 -6.25 16.9375 C-7.03890625 16.92589844 -7.8278125 16.91429688 -8.640625 16.90234375 C-10.90691002 16.99614694 -12.8288895 17.36758937 -15 18 C-15 18.66 -15 19.32 -15 20 C-15.66 20 -16.32 20 -17 20 C-19.11454886 28.77858164 -20.94969526 37.58909255 -22.64160156 46.45800781 C-22.80370117 47.29170898 -22.96580078 48.12541016 -23.1328125 48.984375 C-23.27605957 49.73428711 -23.41930664 50.48419922 -23.56689453 51.25683594 C-24 53 -24 53 -25 54 C-27.53049402 54.07313567 -30.03304837 54.09247527 -32.5625 54.0625 C-33.62887695 54.05573242 -33.62887695 54.05573242 -34.71679688 54.04882812 C-36.47790013 54.03700864 -38.23896036 54.01907263 -40 54 C-40.34157959 47.39612784 -39.41100992 41.72794378 -37.921875 35.30078125 C-36.49934699 28.95328886 -35.53878352 22.50811661 -34.53417969 16.08349609 C-33.6332827 10.61935999 -32.43828699 5.98047826 -30 1 C-27.87420987 1.05988141 -25.74921587 1.14862744 -23.625 1.25 C-22.44164062 1.29640625 -21.25828125 1.3428125 -20.0390625 1.390625 C-17 2 -17 2 -15.5859375 4.046875 C-15.39257812 4.69140625 -15.19921875 5.3359375 -15 6 C-15 5.34 -15 4.68 -15 4 C-5.77448747 -0.59225513 -5.77448747 -0.59225513 0 0 Z " fill="#052D5C" transform="translate(244,49)"/>
<path d="M0 0 C5.97031739 0.29123499 8.894534 3.02814384 13 7 C12.58693713 10.40776867 11.77979512 12.37159573 10 15.375 C7.89890316 18.95149941 7 21.77197698 7 26 C8.40704666 31.14605177 10.74791862 34.16920638 15.25 37 C16.48881577 37.68722627 17.73535994 38.36154094 19 39 C18.6238592 41.42458324 18.42325367 42.65814126 16.4765625 44.23046875 C15.86554688 44.54628906 15.25453125 44.86210938 14.625 45.1875 C14.01914063 45.51105469 13.41328125 45.83460937 12.7890625 46.16796875 C7.90902975 48.43750363 3.00316504 48.9660917 -2.125 47.31640625 C-8.07007768 44.6028386 -11.61319974 41.10379105 -14.3125 35.0625 C-15.86136141 28.16302645 -15.02663219 22.3129754 -12 16 C-8.36700587 10.3846715 -4.18657488 5.20746227 0 0 Z " fill="#0295EF" transform="translate(59,39)"/>
<path d="M0 0 C4.95 0 9.9 0 15 0 C15 7.87811677 15 7.87811677 14.49682617 11.06420898 C14.38638474 11.77862656 14.2759433 12.49304413 14.16215515 13.22911072 C14.04032364 13.97721512 13.91849213 14.72531952 13.79296875 15.49609375 C13.6669075 16.28846939 13.54084625 17.08084503 13.41096497 17.89723206 C13.1438913 19.56418328 12.87396221 21.23067928 12.60131836 22.89672852 C12.18952263 25.42508139 11.79252322 27.95546537 11.39648438 30.48632812 C11.13370993 32.1147284 10.87006643 33.74298873 10.60546875 35.37109375 C10.48970993 36.11717392 10.37395111 36.86325409 10.25468445 37.63194275 C9.40459231 42.71960729 7.93483471 47.21606803 6 52 C1.05 52 -3.9 52 -9 52 C-8.13544131 40.16448959 -6.2943537 28.61992593 -3.9375 17 C-3.73395905 15.99341339 -3.73395905 15.99341339 -3.52630615 14.9664917 C-1.24178482 3.72535446 -1.24178482 3.72535446 0 0 Z " fill="#042D5D" transform="translate(291,51)"/>
<path d="M0 0 C0 2.125 0 2.125 -1 5 C-3.49775783 7.25484692 -6.19801963 9.14265083 -9 11 C-8.34 8.36 -7.68 5.72 -7 3 C-16.38700432 5.44878374 -25.70598599 8.16954573 -32 16 C-38.60691359 27.93274808 -41.46439703 40.41013392 -38.31640625 53.9375 C-37.37411444 56.12705772 -36.3138732 58.01296954 -35 60 C-34.54109375 60.77601562 -34.0821875 61.55203125 -33.609375 62.3515625 C-29.32293249 69.27755119 -24.62925324 73.77875974 -17 77 C-16.01 77 -15.02 77 -14 77 C-14 77.66 -14 78.32 -14 79 C0.13259589 79.33478553 0.13259589 79.33478553 14 77 C14.04125 76.401875 14.0825 75.80375 14.125 75.1875 C15 73 15 73 17.9375 71.25 C21 70 21 70 23 70 C23 69.34 23 68.68 23 68 C23.66 67.34 24.32 66.68 25 66 C25.99 66 26.98 66 28 66 C28.33 63.36 28.66 60.72 29 58 C29.33 58.66 29.66 59.32 30 60 C30.66 60 31.32 60 32 60 C32.268125 59.030625 32.53625 58.06125 32.8125 57.0625 C34.06628255 52.66073104 35.5264507 48.33223494 37 44 C34.09197539 46.21928194 32.04687238 47.92969143 30 51 C29.34 51 28.68 51 28 51 C28 51.99 28 52.98 28 54 C25.75 55.75 25.75 55.75 23 57 C20.828125 56.578125 20.828125 56.578125 19 56 C19.51949219 55.63648438 20.03898437 55.27296875 20.57421875 54.8984375 C26.35928216 50.72805907 30.29801824 46.7031475 34.125 40.625 C34.74375 39.75875 35.3625 38.8925 36 38 C36.99 38 37.98 38 39 38 C39.49147053 50.79643637 38.48406188 59.21531543 30 69 C29.4740625 69.62003906 28.948125 70.24007812 28.40625 70.87890625 C20.89431546 79.08179703 10.75792993 82.88467005 -0.1875 83.375 C-12.26389652 83.09065271 -22.30147203 78.30526801 -30.99609375 70.12109375 C-40.12048649 60.40803051 -42.49947988 50.33381716 -42.27734375 37.41015625 C-41.77129162 25.69039178 -36.52874206 17.04405882 -28.125 9.25 C-19.72684315 2.24089191 -10.81875442 -0.38638409 0 0 Z " fill="#2684B5" transform="translate(46,39)"/>
<path d="M0 0 C5.97031739 0.29123499 8.894534 3.02814384 13 7 C12.58693713 10.40776867 11.77979512 12.37159573 10 15.375 C7.89890316 18.95149941 7 21.77197698 7 26 C8.40704666 31.14605177 10.74791862 34.16920638 15.25 37 C16.48881577 37.68722627 17.73535994 38.36154094 19 39 C18.6238592 41.42458324 18.42325367 42.65814126 16.4765625 44.23046875 C15.86554688 44.54628906 15.25453125 44.86210938 14.625 45.1875 C14.01914063 45.51105469 13.41328125 45.83460937 12.7890625 46.16796875 C7.90902975 48.43750363 3.00316504 48.9660917 -2.125 47.31640625 C-8.07007768 44.6028386 -11.61319974 41.10379105 -14.3125 35.0625 C-15.86136141 28.16302645 -15.02663219 22.3129754 -12 16 C-8.36700587 10.3846715 -4.18657488 5.20746227 0 0 Z M-5 12 C-5.33 12.99 -5.66 13.98 -6 15 C-6.66 15 -7.32 15 -8 15 C-11.78188076 20.67282115 -11.84680666 28.55027067 -10.5859375 35.17578125 C-9.8626198 37.42771036 -8.68891982 38.38145184 -7 40 C-6.67 40.99 -6.34 41.98 -6 43 C-2.19562626 46.31348681 1.56809807 46.55383873 6.41796875 46.4375 C10.62133162 45.72528118 13.68782014 43.59053174 17 41 C16.67 40.01 16.34 39.02 16 38 C14.88625 37.566875 14.88625 37.566875 13.75 37.125 C10.34899963 35.73368167 8.53993336 33.6085802 6 31 C5.34 31 4.68 31 4 31 C3.855625 30.030625 3.71125 29.06125 3.5625 28.0625 C3.32437659 25.13513227 3.32437659 25.13513227 2 24 C1.98046875 21.78515625 1.98046875 21.78515625 2.1875 19.0625 C2.24292969 18.16660156 2.29835938 17.27070312 2.35546875 16.34765625 C3 14 3 14 5.05078125 12.68359375 C6.01564453 12.34521484 6.01564453 12.34521484 7 12 C7 11.01 7 10.02 7 9 C5.18582291 6.81026503 5.18582291 6.81026503 2.6875 6.5625 C-1.14748684 7.18680018 -2.55451067 9.07899886 -5 12 Z " fill="#0B95E2" transform="translate(59,39)"/>
<path d="M0 0 C0.66 0.66 1.32 1.32 2 2 C1.79296875 4.0234375 1.79296875 4.0234375 1.1875 6.375 C0.99542969 7.14585938 0.80335938 7.91671875 0.60546875 8.7109375 C0.40566406 9.46632813 0.20585937 10.22171875 0 11 C-0.33440375 12.33306527 -0.66809978 13.66630921 -1 15 C-2.01320313 14.93039063 -2.01320313 14.93039063 -3.046875 14.859375 C-8.62926558 14.51547935 -8.62926558 14.51547935 -13.5625 16.75 C-15.26204424 19.14737401 -15.26204424 19.14737401 -16 23 C-12.04 23 -8.08 23 -4 23 C-4.66 27.29 -5.32 31.58 -6 36 C-10.29 36 -14.58 36 -19 36 C-19.33 36.99 -19.66 37.98 -20 39 C-20 37.68 -20 36.36 -20 35 C-18.515 34.505 -18.515 34.505 -17 34 C-16.67 33.34 -16.34 32.68 -16 32 C-13.36 32.33 -10.72 32.66 -8 33 C-8 30.69 -8 28.38 -8 26 C-9.98567708 25.8046875 -11.97135417 25.609375 -13.95703125 25.4140625 C-16 25 -16 25 -19 23 C-19.97684474 20.6841632 -20.18645113 19.53562324 -19.35546875 17.1484375 C-17.34688068 14.09860812 -15.96422236 12.33659591 -12.4375 11.10546875 C-9.95638841 10.61559018 -7.51686399 10.23946861 -5 10 C-4.61866701 8.0085944 -4.28674418 6.00720923 -4 4 C-5.13701597 2.63467451 -5.13701597 2.63467451 -8.16015625 2.90234375 C-9.44792969 2.91394531 -10.73570312 2.92554688 -12.0625 2.9375 C-13.35285156 2.94652344 -14.64320313 2.95554687 -15.97265625 2.96484375 C-16.97167969 2.97644531 -17.97070312 2.98804688 -19 3 C-19.309375 3.61875 -19.61875 4.2375 -19.9375 4.875 C-21.66437872 8.32875744 -22.4402414 9.39236708 -26 11 C-25.95875 11.680625 -25.9175 12.36125 -25.875 13.0625 C-26.06448309 17.51535271 -26.63404783 21.53647982 -29.75 24.875 C-32.47577074 26.23788537 -34.99359871 26.59914649 -38 27 C-39.96822886 28.96822886 -39.66248381 32.34808709 -40 35 C-37.69 35 -35.38 35 -33 35 C-33 36.65 -33 38.3 -33 40 C-33.66 40 -34.32 40 -35 40 C-35 38.68 -35 37.36 -35 36 C-37.31 36 -39.62 36 -42 36 C-41.85966889 34.02043559 -41.7125877 32.04134859 -41.5625 30.0625 C-41.48128906 28.96035156 -41.40007812 27.85820313 -41.31640625 26.72265625 C-41 24 -41 24 -40 23 C-37.32941149 22.85884839 -34.67567762 22.95752893 -32 23 C-31.89042969 22.34773438 -31.78085937 21.69546875 -31.66796875 21.0234375 C-30.23130319 13.10425663 -28.40142429 7.39245866 -21.9375 2.26171875 C-15.33127797 -2.04031697 -7.46693538 -1.42446152 0 0 Z " fill="#0F2B4A" transform="translate(352,28)"/>
<path d="M0 0 C4.62 0 9.24 0 14 0 C14 0.33 14 0.66 14 1 C8.06 1.495 8.06 1.495 2 2 C1.49838258 5.62478302 0.99863259 9.24980627 0.5 12.875 C0.28537109 14.42380859 0.28537109 14.42380859 0.06640625 16.00390625 C-0.06894531 16.99003906 -0.20429688 17.97617188 -0.34375 18.9921875 C-0.53227539 20.35899658 -0.53227539 20.35899658 -0.72460938 21.75341797 C-1.04055711 23.9536238 -1.04055711 23.9536238 -1 26 C2.3 25.67 5.6 25.34 9 25 C10.35209795 29.65722627 10.06102674 34.30380339 9 39 C5.88405915 42.11594085 2.44910306 41.74821347 -1.8203125 42.01953125 C-7.15587649 41.98675752 -11.49185906 41.07245449 -15.6640625 37.625 C-19.24087353 33.46870561 -19.6129477 29.41279353 -19.375 24.06640625 C-18.70697731 18.60392903 -17.41847288 13.31083002 -16 8 C-15.67 8.99 -15.34 9.98 -15 11 C-14.34 11 -13.68 11 -13 11 C-13.16757813 11.72445312 -13.33515625 12.44890625 -13.5078125 13.1953125 C-14.71742022 18.93712129 -15.17450097 22.42784125 -13 28 C-13.875 30.375 -13.875 30.375 -15 32 C-14.34 32.433125 -13.68 32.86625 -13 33.3125 C-12.34 33.869375 -11.68 34.42625 -11 35 C-11 35.99 -11 36.98 -11 38 C-8.525 37.505 -8.525 37.505 -6 37 C-6 37.66 -6 38.32 -6 39 C-4.20767663 38.69128878 -2.41615679 38.37790936 -0.625 38.0625 C0.37273437 37.88847656 1.37046875 37.71445313 2.3984375 37.53515625 C4.96909656 37.12287938 4.96909656 37.12287938 7 36 C7 34.02 7 32.04 7 30 C6.1028125 30.2475 6.1028125 30.2475 5.1875 30.5 C3 31 3 31 0 31 C-0.268125 30.38125 -0.53625 29.7625 -0.8125 29.125 C-1.95556848 26.7004767 -1.95556848 26.7004767 -5 25 C-5.328125 22.4609375 -5.328125 22.4609375 -5.25 19.375 C-5.22421875 18.30507812 -5.1984375 17.23515625 -5.171875 16.1328125 C-4.96563887 12.37369039 -4.57233624 8.72018555 -4 5 C-3.01 5 -2.02 5 -1 5 C-0.67 3.35 -0.34 1.7 0 0 Z " fill="#1D2F49" transform="translate(267,63)"/>
<path d="M0 0 C4.95 0 9.9 0 15 0 C15 5.74070843 14.58099187 10.61241281 13.625 16.1875 C13.43550781 17.37762695 13.43550781 17.37762695 13.2421875 18.59179688 C13.11328125 19.35943359 12.984375 20.12707031 12.8515625 20.91796875 C12.73635254 21.60656982 12.62114258 22.2951709 12.50244141 23.00463867 C11.94913485 25.20200236 11.07799585 27.01329645 10 29 C9.34 28.67 8.68 28.34 8 28 C8.13277344 27.11699219 8.26554687 26.23398438 8.40234375 25.32421875 C9.49587822 17.89297352 10.41921109 10.48912016 11 3 C6.545 3.495 6.545 3.495 2 4 C2.33 4.99 2.66 5.98 3 7 C2.44140625 9.26171875 2.44140625 9.26171875 1.5625 11.6875 C1.27503906 12.49574219 0.98757813 13.30398437 0.69140625 14.13671875 C0.46324219 14.75160156 0.23507812 15.36648437 0 16 C-0.33 16 -0.66 16 -1 16 C-1.04898437 17.04800781 -1.09796875 18.09601563 -1.1484375 19.17578125 C-1.22348143 20.55471354 -1.29902857 21.9336185 -1.375 23.3125 C-1.4059375 24.00279297 -1.436875 24.69308594 -1.46875 25.40429688 C-1.68124919 29.06990789 -1.91933861 30.87900792 -4 34 C-4.07905064 36.33199388 -4.08798769 38.66832622 -4 41 C-4.66 41 -5.32 41 -6 41 C-6 43.97 -6 46.94 -6 50 C-2.37 50 1.26 50 5 50 C5 46.04 5 42.08 5 38 C5.66 38 6.32 38 7 38 C7.33 35.69 7.66 33.38 8 31 C10.13268544 38.63638979 9.13118693 44.82436328 6 52 C1.05 52 -3.9 52 -9 52 C-8.13544131 40.16448959 -6.2943537 28.61992593 -3.9375 17 C-3.73395905 15.99341339 -3.73395905 15.99341339 -3.52630615 14.9664917 C-1.24178482 3.72535446 -1.24178482 3.72535446 0 0 Z " fill="#132B4A" transform="translate(291,51)"/>
<path d="M0 0 C2.77835049 1.26288659 4.49102772 2.3522171 6.375 4.75 C7.33008949 8.18832218 6.90421661 10.56397688 6 14 C3.38804529 17.53382108 1.71296572 18.78356398 -2.5 20.0625 C-6 20 -6 20 -8.8125 18.5625 C-11.62979584 15.26223916 -12.80956071 12.34547845 -13 8 C-10.52282279 1.80705697 -6.62433701 -0.81114331 0 0 Z " fill="#0494EA" transform="translate(54,20)"/>
<path d="M0 0 C2.1875 2.4375 2.1875 2.4375 2.75 6.375 C2.47668683 10.45192143 1.23805549 12.63428684 -1.8125 15.4375 C-4.53141828 16.97124877 -6.1983502 17.45285375 -9.3125 17.375 C-12.84597588 16.04994655 -14.53121506 14.43576021 -16.8125 11.4375 C-17.48346636 7.26259823 -17.30598946 5.25998243 -15.125 1.625 C-10.03077411 -3.19386233 -6.00411783 -3.33562102 0 0 Z " fill="#0E233E" transform="translate(308.8125,29.5625)"/>
<path d="M0 0 C0 3 0 3 -1 5 C-1.66 5 -2.32 5 -3 5 C-3.144375 5.78375 -3.28875 6.5675 -3.4375 7.375 C-4 10 -4 10 -5 12 C-5.66 12 -6.32 12 -7 12 C-6.979375 13.051875 -6.95875 14.10375 -6.9375 15.1875 C-7 19 -7 19 -7.625 21.375 C-8.40296621 26.8207635 -6.565007 32.22713888 -4 37 C-2.68 37 -1.36 37 0 37 C0 37.66 0 38.32 0 39 C0.66 39 1.32 39 2 39 C2 39.99 2 40.98 2 42 C8.69675136 43.03026944 15.2314676 43.10152799 22 43 C22.495 42.01 22.495 42.01 23 41 C24.65 41 26.3 41 28 41 C28.33 39.02 28.66 37.04 29 35 C29.66 35 30.32 35 31 35 C31.33 35.66 31.66 36.32 32 37 C32.2703788 34.07385347 32.2703788 34.07385347 30.875 32.25 C28.92964025 30.66725699 28.92964025 30.66725699 25.8125 31.3125 C24.4203125 31.6528125 24.4203125 31.6528125 23 32 C23 32.66 23 33.32 23 34 C22.34 34 21.68 34 21 34 C22.0197307 30.22699642 22.65872662 29.19793856 26.125 27.1875 C27.548125 26.5996875 27.548125 26.5996875 29 26 C30.31886772 27.09655288 31.62990057 28.20253423 32.9375 29.3125 C33.66839844 29.92738281 34.39929688 30.54226562 35.15234375 31.17578125 C37 33 37 33 38 36 C37.505 36.99 37.505 36.99 37 38 C36.34 38 35.68 38 35 38 C35 38.66 35 39.32 35 40 C28.6637107 45.25777197 21.25590974 47.49501699 13.07421875 47.25390625 C6.22087622 46.41498485 -1.00458087 43.7359533 -5.40625 38.24609375 C-10.09355767 31.28326172 -11.64949368 24.848947 -10.53515625 16.5234375 C-8.96302393 9.1103172 -6.18460619 4.35733618 0 0 Z " fill="#132E4B" transform="translate(108,58)"/>
<path d="M0 0 C0.99 0 1.98 0 3 0 C3.54340364 14.1486206 1.75872492 22.45341339 -7.76953125 32.94921875 C-13.14831887 38.53893922 -17.37352398 41.23940566 -25.25 42.1875 C-26.23818726 42.30810791 -26.23818726 42.30810791 -27.24633789 42.43115234 C-32.20138644 43.00080984 -37.02103316 43.17470059 -42 43 C-38.6515289 41.01184529 -35.86127071 40.66434965 -32 40.4375 C-28.53759804 40.22542788 -25.33691419 39.97059283 -22 39 C-21.95875 38.401875 -21.9175 37.80375 -21.875 37.1875 C-21 35 -21 35 -18.0625 33.25 C-15 32 -15 32 -13 32 C-13 31.34 -13 30.68 -13 30 C-12.34 29.34 -11.68 28.68 -11 28 C-10.01 28 -9.02 28 -8 28 C-7.67 25.36 -7.34 22.72 -7 20 C-6.505 20.99 -6.505 20.99 -6 22 C-5.34 22 -4.68 22 -4 22 C-3.731875 21.030625 -3.46375 20.06125 -3.1875 19.0625 C-1.93371745 14.66073104 -0.4735493 10.33223494 1 6 C-1.90802461 8.21928194 -3.95312762 9.92969143 -6 13 C-6.66 13 -7.32 13 -8 13 C-8 13.99 -8 14.98 -8 16 C-10.25 17.75 -10.25 17.75 -13 19 C-15.171875 18.578125 -15.171875 18.578125 -17 18 C-16.48050781 17.63648437 -15.96101563 17.27296875 -15.42578125 16.8984375 C-9.64071784 12.72805907 -5.70198176 8.7031475 -1.875 2.625 C-1.25625 1.75875 -0.6375 0.8925 0 0 Z " fill="#0E91DC" transform="translate(82,77)"/>
<path d="M0 0 C4.95 0 9.9 0 15 0 C16.21245921 4.84983684 15.65227848 8.07167374 15 13 C20.445 13.495 20.445 13.495 26 14 C26.08159574 18.16138263 25.98248524 21.9472484 25 26 C23.35 25.67 21.7 25.34 20 25 C20.33 24.401875 20.66 23.80375 21 23.1875 C22.20787988 20.94613529 22.20787988 20.94613529 22 18 C21.38511719 17.96261719 20.77023437 17.92523438 20.13671875 17.88671875 C19.32847656 17.82097656 18.52023437 17.75523438 17.6875 17.6875 C16.88699219 17.62949219 16.08648437 17.57148437 15.26171875 17.51171875 C12.59142892 16.90755991 11.6694356 16.13460342 10 14 C9.125 11.5 9.125 11.5 9 9 C10.4375 7.1875 10.4375 7.1875 12 6 C11.67 5.34 11.34 4.68 11 4 C5.91696314 3.88679144 5.91696314 3.88679144 1 5 C0.96261719 5.62648438 0.92523438 6.25296875 0.88671875 6.8984375 C0.82097656 7.71570312 0.75523437 8.53296875 0.6875 9.375 C0.62949219 10.18710937 0.57148438 10.99921875 0.51171875 11.8359375 C0 14 0 14 -3 16 C-4.65549531 16.38499891 -6.3222433 16.72793135 -8 17 C-8.33 19.31 -8.66 21.62 -9 24 C-7.35 24 -5.7 24 -4 24 C-2.875 25.625 -2.875 25.625 -2 28 C-2.875 31.25 -2.875 31.25 -4 34 C-4.33 34 -4.66 34 -5 34 C-5 31.69 -5 29.38 -5 27 C-7.31 27 -9.62 27 -12 27 C-11.85966889 25.02043559 -11.7125877 23.04134859 -11.5625 21.0625 C-11.48128906 19.96035156 -11.40007812 18.85820313 -11.31640625 17.72265625 C-11 15 -11 15 -10 14 C-7.32941149 13.85884839 -4.67567762 13.95752893 -2 14 C-1.93941406 13.15695313 -1.87882813 12.31390625 -1.81640625 11.4453125 C-1.73261719 10.34960938 -1.64882812 9.25390625 -1.5625 8.125 C-1.48128906 7.03445312 -1.40007812 5.94390625 -1.31640625 4.8203125 C-1 2 -1 2 0 0 Z " fill="#152D4D" transform="translate(257,37)"/>
<path d="M0 0 C0.66 0.66 1.32 1.32 2 2 C1.89160156 4.28735352 1.89160156 4.28735352 1.390625 7.12890625 C1.21273438 8.16466797 1.03484375 9.20042969 0.8515625 10.26757812 C0.65304687 11.35490234 0.45453125 12.44222656 0.25 13.5625 C0.06695312 14.62275391 -0.11609375 15.68300781 -0.3046875 16.77539062 C-3.39094054 34.39094054 -3.39094054 34.39094054 -5 36 C-7.53049402 36.07313567 -10.03304837 36.09247527 -12.5625 36.0625 C-13.62887695 36.05573242 -13.62887695 36.05573242 -14.71679688 36.04882812 C-16.47790013 36.03700864 -18.23896036 36.01907263 -20 36 C-20.32512629 28.33514765 -19.09741566 21.41944957 -17.5 13.9375 C-17.26152344 12.78572266 -17.02304687 11.63394531 -16.77734375 10.44726562 C-16.19279852 7.62975761 -15.60019417 4.81420829 -15 2 C-14.01 2.66 -13.02 3.32 -12 4 C-12.12117188 4.6084375 -12.24234375 5.216875 -12.3671875 5.84375 C-13.96231167 14.18747645 -15.00556591 22.56846838 -16 31 C-13.36 31 -10.72 31 -8 31 C-6.04977535 26.83361098 -5.54332083 22.83592835 -5.125 18.3125 C-4.42270201 11.69300011 -2.97741131 6.01263642 0 0 Z " fill="#152D50" transform="translate(331,67)"/>
<path d="M0 0 C2.80088692 0.2524609 5.5418983 0.64190782 8.296875 1.20703125 C8.296875 2.52703125 8.296875 3.84703125 8.296875 5.20703125 C7.636875 5.20703125 6.976875 5.20703125 6.296875 5.20703125 C6.0297168 6.06965576 5.76255859 6.93228027 5.48730469 7.82104492 C3.65482484 13.03323995 1.04577294 17.80963878 -1.50585938 22.70092773 C-2.44336273 24.50078919 -3.37053375 26.30570178 -4.296875 28.11132812 C-7.74506182 34.75350851 -11.36452119 41.10474293 -15.703125 47.20703125 C-16.033125 46.54703125 -16.363125 45.88703125 -16.703125 45.20703125 C-15.4411976 42.7195782 -14.12374936 40.35201347 -12.703125 37.95703125 C-8.3895105 30.51033466 -4.46427411 22.94701655 -0.703125 15.20703125 C-1.693125 14.54703125 -2.683125 13.88703125 -3.703125 13.20703125 C-2.713125 12.87703125 -1.723125 12.54703125 -0.703125 12.20703125 C-0.55875 11.44390625 -0.414375 10.68078125 -0.265625 9.89453125 C0.296875 7.20703125 0.296875 7.20703125 1.296875 4.20703125 C-1.343125 3.87703125 -3.983125 3.54703125 -6.703125 3.20703125 C-7.033125 4.85703125 -7.363125 6.50703125 -7.703125 8.20703125 C-8.693125 8.20703125 -9.683125 8.20703125 -10.703125 8.20703125 C-9.45156222 1.19827968 -6.79594438 -0.29982108 0 0 Z " fill="#1D3757" transform="translate(396.703125,49.79296875)"/>
<path d="M0 0 C5.93310301 0.14126436 8.94478772 3.07676209 13 7 C12.58693713 10.40776867 11.77979512 12.37159573 10 15.375 C7.89890316 18.95149941 7 21.77197698 7 26 C8.70753345 31.34357526 11.28967679 34.85978453 16 38 C11.40858055 37.7299165 9.33092223 35.77249677 6.234375 32.66796875 C3.84640154 29.44118183 3.880106 26.15279179 3.9375 22.25 C3.94652344 21.45078125 3.95554687 20.6515625 3.96484375 19.828125 C3.97644531 19.22484375 3.98804688 18.6215625 4 18 C4.66 18 5.32 18 6 18 C7.97387813 13.23947038 8.0070238 10.03511899 7 5 C4.36 4.34 1.72 3.68 -1 3 C-1.20625 3.680625 -1.4125 4.36125 -1.625 5.0625 C-3.45408866 8.97009851 -6.10279034 11.83857939 -9 15 C-9 10.98763758 -7.45029655 9.55593108 -5.0625 6.375 C-4.33160156 5.39273438 -3.60070313 4.41046875 -2.84765625 3.3984375 C-1 1 -1 1 0 0 Z " fill="#208BBA" transform="translate(59,39)"/>
<path d="M0 0 C1.875 1.125 1.875 1.125 3 3 C2.92344975 6.5978617 2.35277551 8.50863412 0.25 11.4375 C-2 13 -2 13 -4.5625 12.875 C-7 12 -7 12 -10 10 C-10.6875 6.375 -10.6875 6.375 -11 3 C-4.35863874 -0.70680628 -4.35863874 -0.70680628 0 0 Z " fill="#042C5E" transform="translate(306,31)"/>
<path d="M0 0 C0.33 0 0.66 0 1 0 C1.125 3.375 1.125 3.375 1 7 C0.34 7.66 -0.32 8.32 -1 9 C-1.25647505 11.55282144 -1.3802421 13.94535044 -1.375 16.5 C-1.37483887 17.21961914 -1.37467773 17.93923828 -1.37451172 18.68066406 C-1.24503621 24.76192445 0.13935985 29.61280906 3 35 C3.31195312 35.70640625 3.62390625 36.4128125 3.9453125 37.140625 C5.00004355 39.32506478 5.00004355 39.32506478 8 41 C8.33 41.99 8.66 42.98 9 44 C11.50447516 45.21869929 11.50447516 45.21869929 14 46 C14 46.99 14 47.98 14 49 C14.71800781 49.12503906 15.43601562 49.25007813 16.17578125 49.37890625 C18.99786175 49.99952976 21.50798812 50.86326301 24.1875 51.9375 C25.04730469 52.27652344 25.90710938 52.61554688 26.79296875 52.96484375 C29 54 29 54 31 56 C25.26537759 56.57346224 21.83708453 54.71027304 17 52 C15.824375 51.4225 14.64875 50.845 13.4375 50.25 C5.1357513 45.41679014 -0.5431698 36.07137306 -3 27 C-3.303222 23.87040529 -3.3248524 20.76744962 -3.3125 17.625 C-3.32861328 16.81289062 -3.34472656 16.00078125 -3.36132812 15.1640625 C-3.36590525 9.45180578 -2.28162037 5.23749268 0 0 Z " fill="#0F91DC" transform="translate(9,63)"/>
<path d="M0 0 C0 2.125 0 2.125 -1 5 C-3.49775783 7.25484692 -6.19801963 9.14265083 -9 11 C-8.34 8.36 -7.68 5.72 -7 3 C-16.62853457 5.51179163 -25.18290179 8.39819983 -32 16 C-33.98958527 19.21628365 -33.98958527 19.21628365 -35 22 C-35.99 21.67 -36.98 21.34 -38 21 C-30.90499754 10.65312141 -22.48174564 3.12087104 -10.03125 0.3046875 C-6.6596166 -0.20105751 -3.40373256 -0.12156188 0 0 Z " fill="#3088AE" transform="translate(46,39)"/>
<path d="M0 0 C0.45890625 0.42152344 0.9178125 0.84304687 1.390625 1.27734375 C2.31101562 2.09912109 2.31101562 2.09912109 3.25 2.9375 C3.85328125 3.48277344 4.4565625 4.02804688 5.078125 4.58984375 C6.91258981 6.13003521 6.91258981 6.13003521 9.171875 6.50390625 C9.77515625 6.66761719 10.3784375 6.83132812 11 7 C11.33 7.99 11.66 8.98 12 10 C6.9177132 13.97497292 2.85580462 15.7771813 -3.66015625 15.42578125 C-7.20018648 14.78160213 -9.37823743 13.42008853 -12 11 C-12.75 8.875 -12.75 8.875 -13 7 C-13.66 6.34 -14.32 5.68 -15 5 C-14.01 4.67 -13.02 4.34 -12 4 C-12 4.66 -12 5.32 -12 6 C-11.34 6 -10.68 6 -10 6 C-10 7.65 -10 9.3 -10 11 C-8.72125 10.79375 -7.4425 10.5875 -6.125 10.375 C-3.9453125 10.0234375 -3.9453125 10.0234375 -2 10 C-1.34 10.66 -0.68 11.32 0 12 C0.45375 11.525625 0.9075 11.05125 1.375 10.5625 C3 9 3 9 5 8 C4.175 7.05125 3.35 6.1025 2.5 5.125 C0 2.25 0 2.25 0 0 Z " fill="#0891E0" transform="translate(64,70)"/>
<path d="M0 0 C4.62 0 9.24 0 14 0 C14 0.33 14 0.66 14 1 C8.06 1.495 8.06 1.495 2 2 C1.49838258 5.62478302 0.99863259 9.24980627 0.5 12.875 C0.35691406 13.90753906 0.21382813 14.94007812 0.06640625 16.00390625 C-0.13662109 17.48310547 -0.13662109 17.48310547 -0.34375 18.9921875 C-0.46943359 19.90339355 -0.59511719 20.81459961 -0.72460938 21.75341797 C-1.04055711 23.9536238 -1.04055711 23.9536238 -1 26 C2.3 25.67 5.6 25.34 9 25 C9 25.66 9 26.32 9 27 C5.43528609 28.18823797 2.7441664 28.26274852 -1 28 C-3.203125 26.83984375 -3.203125 26.83984375 -5 25 C-5.42578125 22.36328125 -5.42578125 22.36328125 -5.3125 19.3125 C-5.27769531 18.25160156 -5.24289062 17.19070312 -5.20703125 16.09765625 C-4.95717564 12.35925057 -4.5696904 8.70298758 -4 5 C-3.01 5 -2.02 5 -1 5 C-0.67 3.35 -0.34 1.7 0 0 Z " fill="#163150" transform="translate(267,63)"/>
<path d="M0 0 C0.33 0.99 0.66 1.98 1 3 C1.66 3 2.32 3 3 3 C2.125 9.75 2.125 9.75 1 12 C0.960008 13.99960012 0.95653201 16.00047242 1 18 C4.63 17.67 8.26 17.34 12 17 C12.33 18.32 12.66 19.64 13 21 C12 22 12 22 8.62109375 22.09765625 C7.22652923 22.09098369 5.83198257 22.07902532 4.4375 22.0625 C3.72658203 22.05798828 3.01566406 22.05347656 2.28320312 22.04882812 C0.52209987 22.03700864 -1.23896036 22.01907263 -3 22 C-3.39363688 14.25847464 -1.94210433 7.47941368 0 0 Z " fill="#0F2744" transform="translate(207,81)"/>
<path d="M0 0 C5.89565886 1.57988244 10.09592554 3.03117796 14 8 C18.84765487 16.96816151 16.32476434 25.64840558 14 35 C13.67 35 13.34 35 13 35 C13.33 31.7 13.66 28.4 14 25 C13.34 25 12.68 25 12 25 C12.02320313 24.10796875 12.04640625 23.2159375 12.0703125 22.296875 C12.08835938 21.12640625 12.10640625 19.9559375 12.125 18.75 C12.14820313 17.58984375 12.17140625 16.4296875 12.1953125 15.234375 C12.00885308 12.14660694 11.71662181 10.52724877 10 8 C7.9664052 6.73195434 7.9664052 6.73195434 6 6 C6 5.34 6 4.68 6 4 C3.03 3.505 3.03 3.505 0 3 C0 2.01 0 1.02 0 0 Z " fill="#132D4D" transform="translate(185,49)"/>
<path d="M0 0 C2.77835049 1.26288659 4.49102772 2.3522171 6.375 4.75 C7.33008949 8.18832218 6.90421661 10.56397688 6 14 C3.38804529 17.53382108 1.71296572 18.78356398 -2.5 20.0625 C-6 20 -6 20 -8.8125 18.5625 C-11.62979584 15.26223916 -12.80956071 12.34547845 -13 8 C-10.52282279 1.80705697 -6.62433701 -0.81114331 0 0 Z M-10 5 C-11.38758266 9.32599299 -11.32469817 11.28566403 -9.4375 15.4375 C-7.23155393 18.24000499 -7.23155393 18.24000499 -4.0625 18.625 C-0.24783524 17.84649699 1.39570338 16.90193052 4 14 C5.3309316 10.60030189 5.3309316 10.60030189 5 7 C2.74652561 3.88490305 1.32020651 2.2640413 -2.5 1.5 C-5.70310289 2.14062058 -7.50706086 2.8533024 -10 5 Z " fill="#307E9D" transform="translate(54,20)"/>
<path d="M0 0 C0.99 0 1.98 0 3 0 C3.0544452 2.20805524 3.09299283 4.41650554 3.125 6.625 C3.14820312 7.85476562 3.17140625 9.08453125 3.1953125 10.3515625 C3.0030428 13.94316041 2.30258556 16.66661175 1 20 C0.67 20 0.34 20 0 20 C-0.02705729 18.22925083 -0.04642195 16.45838289 -0.0625 14.6875 C-0.07410156 13.70136719 -0.08570312 12.71523437 -0.09765625 11.69921875 C0 9 0 9 1 6 C-1.90802461 8.21928194 -3.95312762 9.92969143 -6 13 C-6.66 13 -7.32 13 -8 13 C-8 13.99 -8 14.98 -8 16 C-10.25 17.75 -10.25 17.75 -13 19 C-15.171875 18.578125 -15.171875 18.578125 -17 18 C-16.48050781 17.63648437 -15.96101563 17.27296875 -15.42578125 16.8984375 C-9.64071784 12.72805907 -5.70198176 8.7031475 -1.875 2.625 C-1.25625 1.75875 -0.6375 0.8925 0 0 Z " fill="#2987B6" transform="translate(82,77)"/>
<path d="M0 0 C0.99 0.33 1.98 0.66 3 1 C2.38511719 1.76183594 2.38511719 1.76183594 1.7578125 2.5390625 C1.21898437 3.22742187 0.68015625 3.91578125 0.125 4.625 C-0.40867187 5.29789063 -0.94234375 5.97078125 -1.4921875 6.6640625 C-6.17707288 13.92199374 -6.07148569 23.1714873 -4.546875 31.46484375 C-3.98902826 33.51563252 -3.98902826 33.51563252 -3 36 C-3.66 36 -4.32 36 -5 36 C-5 35.34 -5 34.68 -5 34 C-5.99 33.67 -6.98 33.34 -8 33 C-9.75214655 23.14417567 -9.94533583 14.94134379 -5 6 C-4.34 6 -3.68 6 -3 6 C-2.690625 5.195625 -2.38125 4.39125 -2.0625 3.5625 C-1 1 -1 1 0 0 Z " fill="#2489BA" transform="translate(34,50)"/>
<path d="M0 0 C0 0.66 0 1.32 0 2 C-1.98 2.33 -3.96 2.66 -6 3 C-6 4.98 -6 6.96 -6 9 C-3.69 9 -1.38 9 1 9 C1 8.34 1 7.68 1 7 C5.76307437 6.04738513 10.1666528 5.91666643 15 6 C15 6.66 15 7.32 15 8 C13.83984375 8.14695312 13.83984375 8.14695312 12.65625 8.296875 C5.98255786 9.25497932 0.84373493 10.62861447 -5 14 C-5.86627399 12.40233897 -6.71766465 10.79660056 -7.5625 9.1875 C-8.03816406 8.29417969 -8.51382813 7.40085937 -9.00390625 6.48046875 C-10 4 -10 4 -9 1 C-3.79245283 -1.26415094 -3.79245283 -1.26415094 0 0 Z " fill="#0D2645" transform="translate(167,54)"/>
<path d="M0 0 C0.33 0 0.66 0 1 0 C1.99 5.28 2.98 10.56 4 16 C10.2863532 18.23064146 16.43395316 19.83483511 23 21 C18.32549658 23.79606555 14.17514284 23.0266137 9 22 C4.95713502 20.15434425 1.05339233 17.45791543 -0.75 13.25 C-1.25353321 8.71820111 -1.45704878 4.37114634 0 0 Z " fill="#152F51" transform="translate(150,82)"/>
<path d="M0 0 C1.60080151 4.00200378 0.29279692 7.04556236 -1 11 C-1.60328125 10.98839844 -2.2065625 10.97679688 -2.828125 10.96484375 C-3.62734375 10.95582031 -4.4265625 10.94679688 -5.25 10.9375 C-6.03890625 10.92589844 -6.8278125 10.91429688 -7.640625 10.90234375 C-9.90691002 10.99614694 -11.8288895 11.36758937 -14 12 C-14 12.66 -14 13.32 -14 14 C-14.66 14 -15.32 14 -16 14 C-16.66 16.31 -17.32 18.62 -18 21 C-18.66 21 -19.32 21 -20 21 C-20.33 21.66 -20.66 22.32 -21 23 C-21.25 15.375 -21.25 15.375 -19 12 C-17.68 12 -16.36 12 -15 12 C-14.67 10.68 -14.34 9.36 -14 8 C-10.37 8 -6.74 8 -3 8 C-2.690625 7.05125 -2.38125 6.1025 -2.0625 5.125 C-1 2 -1 2 0 0 Z " fill="#152F4B" transform="translate(243,55)"/>
<path d="M0 0 C0.61875 0.721875 1.2375 1.44375 1.875 2.1875 C7.87208743 8.10035868 15.15773225 10.584373 23.4375 11.01953125 C26.73740771 10.99437951 29.76577194 10.64684561 33 10 C32.67 10.99 32.34 11.98 32 13 C28.3185193 14.22716023 24.89589238 14.18406814 21.0625 14.1875 C20.34642578 14.19974609 19.63035156 14.21199219 18.89257812 14.22460938 C15.10026892 14.23515333 12.21400906 14.12309215 9 12 C9 11.34 9 10.68 9 10 C8.443125 9.79375 7.88625 9.5875 7.3125 9.375 C4.02987629 7.42316968 2.29326754 5.05769006 0 2 C0 1.34 0 0.68 0 0 Z " fill="#2A8EC5" transform="translate(31,86)"/>
<path d="M0 0 C0 3 0 3 -1 5 C-1.66 5 -2.32 5 -3 5 C-3.144375 5.78375 -3.28875 6.5675 -3.4375 7.375 C-4 10 -4 10 -5 12 C-5.66 12 -6.32 12 -7 12 C-6.979375 13.051875 -6.95875 14.10375 -6.9375 15.1875 C-7 19 -7 19 -7.625 21.375 C-8.40296621 26.8207635 -6.565007 32.22713888 -4 37 C-7 36 -7 36 -8.625 33 C-11.90176454 24.40720788 -11.28085741 16.57781422 -8 8 C-5.5 4.9375 -5.5 4.9375 -3 3 C-2.401875 2.401875 -1.80375 1.80375 -1.1875 1.1875 C-0.795625 0.795625 -0.40375 0.40375 0 0 Z " fill="#0D254C" transform="translate(108,58)"/>
<path d="M0 0 C2 1.625 2 1.625 3 4 C3 8.23288716 2.66316819 10.26104116 -0.1875 13.4375 C-3.41176773 15.22875985 -5.36804503 15.33785628 -9 15 C-9.33 14.34 -9.66 13.68 -10 13 C-8.35 13 -6.7 13 -5 13 C-4.67 12.34 -4.34 11.68 -4 11 C-3.01 11 -2.02 11 -1 11 C-1 8.03 -1 5.06 -1 2 C-3.64 2 -6.28 2 -9 2 C-9.33 5.3 -9.66 8.6 -10 12 C-10.99 11.01 -11.98 10.02 -13 9 C-13 5.5 -13 5.5 -12 2 C-8.16011557 -1.61400887 -4.92775333 -1.36882037 0 0 Z " fill="#148DCE" transform="translate(56,23)"/>
<path d="M0 0 C2.1464753 0.11344376 4.29220592 0.24106345 6.4375 0.375 C8.22994141 0.47941406 8.22994141 0.47941406 10.05859375 0.5859375 C11.51458984 0.79089844 11.51458984 0.79089844 13 1 C13.33 1.66 13.66 2.32 14 3 C11.00519083 3.8723412 8.36424089 4.10829766 5.25 4.0625 C4.45078125 4.05347656 3.6515625 4.04445313 2.828125 4.03515625 C2.22484375 4.02355469 1.6215625 4.01195312 1 4 C1.061875 4.886875 1.12375 5.77375 1.1875 6.6875 C1 10 1 10 -0.40625 12.21875 C-2.36009312 15.62839779 -3.01868484 18.99330959 -3.6875 22.8125 C-3.81705078 23.50537109 -3.94660156 24.19824219 -4.08007812 24.91210938 C-4.39557559 26.60644764 -4.69902647 28.30302158 -5 30 C-5.33 30 -5.66 30 -6 30 C-6.21507131 23.78443907 -5.4595038 18.2495545 -4.125 12.1875 C-3.95097656 11.34251953 -3.77695313 10.49753906 -3.59765625 9.62695312 C-2.77790228 5.80447074 -2.20507673 3.30761509 0 0 Z " fill="#19324B" transform="translate(214,50)"/>
<path d="M0 0 C3.03278067 1.51639033 3.61513595 3.98942599 5 7 C5.33 7.99 5.66 8.98 6 10 C8.42383077 11.16953416 8.42383077 11.16953416 11 12 C11.66 12.33 12.32 12.66 13 13 C18.09327229 13.55879426 21.94619873 13.5361445 26.5625 11.1875 C29.21963493 9.16582625 29.21963493 9.16582625 30 6 C30.99 6.33 31.98 6.66 33 7 C32.9375 8.75 32.9375 8.75 32 11 C26.53610421 15.03120332 20.81188073 16.86364916 14 16 C8.14604757 14.11683516 4.36371456 11.09653722 1 6 C0.1875 2.625 0.1875 2.625 0 0 Z " fill="#247CAA" transform="translate(45,71)"/>
<path d="M0 0 C-0.0868748 1.95917659 -0.19504512 3.91741871 -0.3125 5.875 C-0.37050781 6.96554688 -0.42851562 8.05609375 -0.48828125 9.1796875 C-0.65714844 10.11039063 -0.82601563 11.04109375 -1 12 C-4.76508495 14.51005664 -7.39461609 14.0258295 -11.6875 13.625 C-12.38939453 13.56828125 -13.09128906 13.5115625 -13.81445312 13.453125 C-15.54380285 13.31195359 -17.27204088 13.15728041 -19 13 C-18.34 12.67 -17.68 12.34 -17 12 C-16.67 11.34 -16.34 10.68 -16 10 C-16 10.66 -16 11.32 -16 12 C-14.20767663 11.69128878 -12.41615679 11.37790936 -10.625 11.0625 C-9.62726563 10.88847656 -8.62953125 10.71445313 -7.6015625 10.53515625 C-5.03090344 10.12287938 -5.03090344 10.12287938 -3 9 C-3 7.02 -3 5.04 -3 3 C-3.598125 3.165 -4.19625 3.33 -4.8125 3.5 C-7 4 -7 4 -10 4 C-10.33 3.34 -10.66 2.68 -11 2 C-7.12315913 0.80712589 -4.08378077 0 0 0 Z " fill="#0B2241" transform="translate(277,90)"/>
<path d="M0 0 C0.33 0 0.66 0 1 0 C1 7.26 1 14.52 1 22 C1.99 22.33 2.98 22.66 4 23 C4.33 23.99 4.66 24.98 5 26 C4.34 26.33 3.68 26.66 3 27 C-0.875 21.375 -0.875 21.375 -2 18 C-2.66 17.67 -3.32 17.34 -4 17 C-4.37484035 11.12750125 -3.25153948 6.43635958 -1 1 C-0.67 0.67 -0.34 0.34 0 0 Z " fill="#138CD4" transform="translate(48,54)"/>
<path d="M0 0 C5.61 0 11.22 0 17 0 C18.01088242 3.9975805 19.01247317 7.99664367 20 12 C20.20109375 12.80824219 20.4021875 13.61648437 20.609375 14.44921875 C21.90912736 19.93377983 22.55450129 25.38437152 23 31 C23.66 31 24.32 31 25 31 C24.67 32.65 24.34 34.3 24 36 C23.34 36 22.68 36 22 36 C16.89365672 11.00895522 16.89365672 11.00895522 16 1 C8.08 1.495 8.08 1.495 0 2 C0 1.34 0 0.68 0 0 Z " fill="#253850" transform="translate(349,51)"/>
<path d="M0 0 C0.66 0 1.32 0 2 0 C2 0.99 2 1.98 2 3 C-3.34883721 8 -3.34883721 8 -6 8 C-6.12375 8.61875 -6.2475 9.2375 -6.375 9.875 C-7.167849 12.5706866 -8.38194221 13.62199144 -10.75 15.0703125 C-19.24946277 19.05443567 -27.83573177 18.35938307 -37 18 C-37 17.67 -37 17.34 -37 17 C-35.87980469 16.93941406 -34.75960937 16.87882812 -33.60546875 16.81640625 C-32.13280016 16.73198576 -30.66014456 16.64733851 -29.1875 16.5625 C-28.08051758 16.50352539 -28.08051758 16.50352539 -26.95117188 16.44335938 C-23.76928658 16.25618965 -21.03837622 16.01279207 -18 15 C-17.34 14.01 -16.68 13.02 -16 12 C-13.625 11.375 -13.625 11.375 -11 11 C-9.66457061 10.67516582 -8.33038449 10.3449145 -7 10 C-7 9.01 -7 8.02 -7 7 C-4.625 4.4375 -4.625 4.4375 -2 2 C-1.34 1.34 -0.68 0.68 0 0 Z " fill="#1396DF" transform="translate(81,83)"/>
<path d="M0 0 C1.65 0 3.3 0 5 0 C0.25 3.875 0.25 3.875 -2 5 C-1.66132538 9.48684201 -1.66132538 9.48684201 1.0625 12.875 C1.701875 13.24625 2.34125 13.6175 3 14 C2.67 14.66 2.34 15.32 2 16 C-0.93167219 15.68306247 -2.58982661 15.36774166 -4.8125 13.375 C-6.4454521 10.1090958 -6.33326944 7.59930998 -6 4 C-5.34 3.34 -4.68 2.68 -4 2 C-2.68 2 -1.36 2 0 2 C0 1.34 0 0.68 0 0 Z " fill="#0D294B" transform="translate(298,30)"/>
<path d="M0 0 C0.99 0.33 1.98 0.66 3 1 C2.25 3.9375 2.25 3.9375 1 7 C-1.125 7.875 -1.125 7.875 -3 8 C-2.731875 9.0725 -2.46375 10.145 -2.1875 11.25 C-2.125625 12.4875 -2.06375 13.725 -2 15 C-4.3125 17.25 -4.3125 17.25 -7 19 C-7.66 19.99 -8.32 20.98 -9 22 C-9.66 21.67 -10.32 21.34 -11 21 C-9.35739305 17.68589044 -7.71037739 14.37399168 -6.0625 11.0625 C-5.59392578 10.11697266 -5.12535156 9.17144531 -4.64257812 8.19726562 C-4.19462891 7.29814453 -3.74667969 6.39902344 -3.28515625 5.47265625 C-2.87144775 4.64000244 -2.45773926 3.80734863 -2.03149414 2.94946289 C-1 1 -1 1 0 0 Z " fill="#0E2844" transform="translate(384,60)"/>
<path d="M0 0 C3.16115776 1.36983503 3.9927092 1.9890638 6 5 C5.97265625 6.953125 5.97265625 6.953125 5 9 C2.49609375 10.921875 2.49609375 10.921875 -0.5625 12.75 C-2.08037109 13.67039062 -2.08037109 13.67039062 -3.62890625 14.609375 C-4.41136719 15.06828125 -5.19382813 15.5271875 -6 16 C-7.98 14.35 -9.96 12.7 -12 11 C-11.67 10.34 -11.34 9.68 -11 9 C-9.35 9.33 -7.7 9.66 -6 10 C-6.33 10.99 -6.66 11.98 -7 13 C-4.00594421 12.53146378 -4.00594421 12.53146378 -1 11 C0.21960343 7.8955549 1 5.34314092 1 2 C0.67 1.34 0.34 0.68 0 0 Z " fill="#1C354D" transform="translate(145,55)"/>
<path d="M0 0 C0.33 0.99 0.66 1.98 1 3 C1.66 3 2.32 3 3 3 C2.83242187 3.72445312 2.66484375 4.44890625 2.4921875 5.1953125 C1.26677779 11.01213072 0.97856655 14.33998634 3 20 C1.625 22.875 1.625 22.875 0 25 C-3.89936439 18.76101698 -3.13741927 12.82712646 -1.5625 6 C-1.05482516 3.99661945 -0.53837907 1.99534842 0 0 Z " fill="#08274E" transform="translate(251,71)"/>
<path d="M0 0 C0 1.32 0 2.64 0 4 C1.32 4.33 2.64 4.66 4 5 C1.9375 7.5 1.9375 7.5 -1 10 C-4.8125 10.3125 -4.8125 10.3125 -8 10 C-8.33 9.34 -8.66 8.68 -9 8 C-8.030625 7.731875 -7.06125 7.46375 -6.0625 7.1875 C-4.5465625 6.5996875 -4.5465625 6.5996875 -3 6 C-2.67 5.01 -2.34 4.02 -2 3 C-2.94875 2.87625 -3.8975 2.7525 -4.875 2.625 C-8 2 -8 2 -10 0 C-6.42355152 -1.2380014 -3.66305234 -0.74926071 0 0 Z " fill="#0A274D" transform="translate(177,93)"/>
<path d="M0 0 C5.93310301 0.14126436 8.94478772 3.07676209 13 7 C12.67 8.65 12.34 10.3 12 12 C11.87625 11.1028125 11.87625 11.1028125 11.75 10.1875 C10.73347136 7.22262481 9.73288768 6.54162895 7 5 C4.34719181 4.18336115 1.71832273 3.58896992 -1 3 C-1.20625 3.680625 -1.4125 4.36125 -1.625 5.0625 C-3.45408866 8.97009851 -6.10279034 11.83857939 -9 15 C-9 10.98763758 -7.45029655 9.55593108 -5.0625 6.375 C-4.33160156 5.39273438 -3.60070313 4.41046875 -2.84765625 3.3984375 C-1 1 -1 1 0 0 Z " fill="#2C7FAE" transform="translate(59,39)"/>
<path d="M0 0 C0.66 0.33 1.32 0.66 2 1 C-0.43589152 9.66094763 -8.80644899 16.20429933 -16 21 C-16.99 21 -17.98 21 -19 21 C-19 20.34 -19 19.68 -19 19 C-16.4385343 16.70351351 -15.52032428 16 -12 16 C-11.79375 15.443125 -11.5875 14.88625 -11.375 14.3125 C-10.03153247 12.05303189 -8.94842298 11.0001344 -6.9375 9.375 C-3.99175287 7.32880603 -3.99175287 7.32880603 -3 5 C-2.34 5 -1.68 5 -1 5 C-0.67 3.35 -0.34 1.7 0 0 Z " fill="#2C86B3" transform="translate(80,97)"/>
<path d="M0 0 C0.44921875 1.99609375 0.44921875 1.99609375 0.6875 4.4375 C0.77386719 5.24058594 0.86023438 6.04367188 0.94921875 6.87109375 C1 9 1 9 0 11 C-0.66 11 -1.32 11 -2 11 C-2.33 11.99 -2.66 12.98 -3 14 C-4.32 14 -5.64 14 -7 14 C-6.67 12.68 -6.34 11.36 -6 10 C-5.34 10 -4.68 10 -4 10 C-3.7215625 8.0509375 -3.7215625 8.0509375 -3.4375 6.0625 C-3.33308594 5.33160156 -3.22867188 4.60070312 -3.12109375 3.84765625 C-3.08113281 3.23792969 -3.04117188 2.62820312 -3 2 C-4.58272601 0.41727399 -6.38034003 0.65264253 -8.5625 0.4375 C-9.38878906 0.35371094 -10.21507812 0.26992187 -11.06640625 0.18359375 C-11.70449219 0.12300781 -12.34257812 0.06242187 -13 0 C-13 -0.33 -13 -0.66 -13 -1 C-8.39782024 -2.21822405 -4.319599 -2.1597995 0 0 Z " fill="#0A264A" transform="translate(185,80)"/>
<path d="M0 0 C0.33 0.66 0.66 1.32 1 2 C10.70159506 3.73242769 20.2443838 2.92439003 30 2 C26.00668365 5.99331635 19.97473754 6.1528694 14.5625 6.3125 C9.28627337 6.23144065 4.85033308 5.01199002 0 3 C0 2.01 0 1.02 0 0 Z " fill="#2C87BB" transform="translate(31,116)"/>
<path d="M0 0 C4.62 0 9.24 0 14 0 C15.125 6.75 15.125 6.75 14 11 C12.35 10.67 10.7 10.34 9 10 C9.495 9.1028125 9.495 9.1028125 10 8.1875 C11.20787988 5.94613529 11.20787988 5.94613529 11 3 C10.37351562 2.95101562 9.74703125 2.90203125 9.1015625 2.8515625 C8.28429687 2.77679688 7.46703125 2.70203125 6.625 2.625 C5.40683594 2.52058594 5.40683594 2.52058594 4.1640625 2.4140625 C2 2 2 2 0 0 Z " fill="#0C274C" transform="translate(268,52)"/>
<path d="M0 0 C1.4540625 0.0309375 1.4540625 0.0309375 2.9375 0.0625 C2.0625 5.8125 2.0625 5.8125 0.9375 8.0625 C0.298125 8.35125 -0.34125 8.64 -1 8.9375 C-3.48251234 10.29159764 -4.03121397 11.48428493 -5.0625 14.0625 C-5.7225 14.0625 -6.3825 14.0625 -7.0625 14.0625 C-6.51526317 10.68787285 -6.0076 8.98015 -4.0625 6.0625 C-3.0725 6.0625 -2.0825 6.0625 -1.0625 6.0625 C-1.8388932 2.9879644 -1.8388932 2.9879644 -4.0625 1.0625 C-3.0625 0.0625 -3.0625 0.0625 0 0 Z " fill="#128AD0" transform="translate(36.0625,41.9375)"/>
<path d="M0 0 C4.95 0 9.9 0 15 0 C14.67 0.99 14.34 1.98 14 3 C14 2.34 14 1.68 14 1 C10.7 1 7.4 1 4 1 C4 5.29 4 9.58 4 14 C3.34 14 2.68 14 2 14 C1.65980848 12.60582227 1.32818221 11.20955342 1 9.8125 C0.814375 9.03519531 0.62875 8.25789063 0.4375 7.45703125 C0 5 0 5 0 0 Z " fill="#0D2846" transform="translate(350,52)"/>
<path d="M0 0 C6.15234375 0.5859375 6.15234375 0.5859375 8 1 C8.33 1.66 8.66 2.32 9 3 C7.3603125 3.2165625 7.3603125 3.2165625 5.6875 3.4375 C2.06877013 3.88288104 2.06877013 3.88288104 -1 5 C-2.10836423 6.88316159 -2.10836423 6.88316159 -3 9 C-3.99 10.485 -3.99 10.485 -5 12 C-5.66 12 -6.32 12 -7 12 C-7.33 12.99 -7.66 13.98 -8 15 C-8.33 14.01 -8.66 13.02 -9 12 C-7.890625 10.3515625 -7.890625 10.3515625 -6.25 8.625 C-3.7657104 5.90383628 -1.77379844 3.2519638 0 0 Z " fill="#0F8FD6" transform="translate(58,42)"/>
<path d="M0 0 C2.41456234 3.67590088 1.96950949 6.2607279 1.25 10.5 C1.06953125 11.6240625 0.8890625 12.748125 0.703125 13.90625 C0.09022167 16.60302467 -0.62536513 18.6235126 -2 21 C-2.66 20.67 -3.32 20.34 -4 20 C-3.7155186 17.79072956 -3.4220904 15.58261021 -3.125 13.375 C-2.96257812 12.14523438 -2.80015625 10.91546875 -2.6328125 9.6484375 C-2.04516311 6.26038483 -1.18011878 3.22301349 0 0 Z " fill="#0E2849" transform="translate(303,59)"/>
<path d="M0 0 C-0.375 1.9375 -0.375 1.9375 -1 4 C-1.99 4.495 -1.99 4.495 -3 5 C-3 4.34 -3 3.68 -3 3 C-4.41875765 3.76697796 -5.83491452 4.53876778 -7.25 5.3125 C-8.03890625 5.74175781 -8.8278125 6.17101563 -9.640625 6.61328125 C-11.89727134 7.9396214 -13.93998597 9.38884224 -16 11 C-14.64891639 7.90989789 -13.20982067 6.03089847 -10.625 3.875 C-10.03976563 3.37742187 -9.45453125 2.87984375 -8.8515625 2.3671875 C-3.88976378 -1.29658793 -3.88976378 -1.29658793 0 0 Z " fill="#1A3956" transform="translate(119,52)"/>
<path d="M0 0 C0.66 0.33 1.32 0.66 2 1 C1.525625 1.350625 1.05125 1.70125 0.5625 2.0625 C-1.77101487 4.95605843 -1.87356532 7.3333943 -2 11 C-1.1155391 13.94707246 -1.1155391 13.94707246 1 16 C4.0957107 16.89207179 4.0957107 16.89207179 7 17 C7 17.66 7 18.32 7 19 C2.93301428 18.76536621 0.67437958 18.62113909 -2.375 15.8125 C-4.19066842 12.66999697 -4.92435678 10.63087437 -5 7 C-3.6260627 4.12127423 -2.25010563 2.25010563 0 0 Z " fill="#3A80AB" transform="translate(46,21)"/>
<path d="M0 0 C0.78375 0.2475 1.5675 0.495 2.375 0.75 C3.86797212 3.73594424 3.49255228 6.45853624 3.375 9.75 C3.045 10.41 2.715 11.07 2.375 11.75 C-0.265 11.42 -2.905 11.09 -5.625 10.75 C-5.625 10.42 -5.625 10.09 -5.625 9.75 C-3.315 9.75 -1.005 9.75 1.375 9.75 C0.74689827 6.77982306 0.74689827 6.77982306 -0.625 3.75 C-3.13495496 2.31076801 -3.13495496 2.31076801 -5.625 1.75 C-2.625 -0.25 -2.625 -0.25 0 0 Z " fill="#143053" transform="translate(184.625,61.25)"/>
<path d="M0 0 C10.59259259 3.19135802 10.59259259 3.19135802 13 6 C13.75 9.6875 13.75 9.6875 14 13 C12 12 12 12 11.125 10.0625 C9.77090236 7.57998766 8.57821507 7.03128603 6 6 C6 5.34 6 4.68 6 4 C3.03 3.505 3.03 3.505 0 3 C0 2.01 0 1.02 0 0 Z " fill="#0C2448" transform="translate(185,49)"/>
<path d="M0 0 C2.475 0.99 2.475 0.99 5 2 C5 2.66 5 3.32 5 4 C4.195625 4.4125 3.39125 4.825 2.5625 5.25 C-0.32499092 6.80803511 -0.32499092 6.80803511 -0.8125 10.1875 C-0.874375 11.115625 -0.93625 12.04375 -1 13 C-1.66 12.67 -2.32 12.34 -3 12 C-3.66 12.66 -4.32 13.32 -5 14 C-4.34580901 8.93001981 -2.1453591 4.58009223 0 0 Z " fill="#1A344D" transform="translate(347,106)"/>
<path d="M0 0 C-0.72445313 0.27972656 -1.44890625 0.55945312 -2.1953125 0.84765625 C-8.84323351 3.60432749 -12.76280382 6.25049264 -17 12 C-18.31590635 13.35053546 -19.64078414 14.69306167 -21 16 C-19.06382979 9.29787234 -19.06382979 9.29787234 -16 7 C-15.34 7 -14.68 7 -14 7 C-13.74992187 6.38769531 -13.49984375 5.77539062 -13.2421875 5.14453125 C-11.79303151 2.64268647 -10.69583411 1.94381327 -8.125 0.6875 C-7.44695313 0.34074219 -6.76890625 -0.00601563 -6.0703125 -0.36328125 C-3.64262754 -1.10990889 -2.36734455 -0.82273185 0 0 Z " fill="#108FD6" transform="translate(32,45)"/>
<path d="M0 0 C0.99 0 1.98 0 3 0 C3 0.66 3 1.32 3 2 C5.97 2.33 8.94 2.66 12 3 C12.33 2.01 12.66 1.02 13 0 C13 1.65 13 3.3 13 5 C8.71 5 4.42 5 0 5 C0 3.35 0 1.7 0 0 Z " fill="#0A2242" transform="translate(182,98)"/>
<path d="M0 0 C0.99 0.33 1.98 0.66 3 1 C2.34 3.64 1.68 6.28 1 9 C4.96 9 8.92 9 13 9 C12.67 9.66 12.34 10.32 12 11 C10.0412957 10.85923685 8.08303907 10.7122324 6.125 10.5625 C5.03445313 10.48128906 3.94390625 10.40007813 2.8203125 10.31640625 C0 10 0 10 -2 9 C-2.8125 7.25 -2.8125 7.25 -3 5 C-1.5625 2.25 -1.5625 2.25 0 0 Z " fill="#142E53" transform="translate(335,42)"/>
<path d="M0 0 C0 1.32 0 2.64 0 4 C-4.62 4 -9.24 4 -14 4 C-13.34 3.67 -12.68 3.34 -12 3 C-12 2.34 -12 1.68 -12 1 C-10.37512529 0.83211627 -8.75009558 0.66573213 -7.125 0.5 C-6.22007812 0.4071875 -5.31515625 0.314375 -4.3828125 0.21875 C-2 0 -2 0 0 0 Z " fill="#0A264B" transform="translate(325,98)"/>
<path d="M0 0 C-0.92961422 1.15224028 -1.8690125 2.29659176 -2.8125 3.4375 C-3.59560547 4.39462891 -3.59560547 4.39462891 -4.39453125 5.37109375 C-6 7 -6 7 -9 8 C-9.33 8.66 -9.66 9.32 -10 10 C-9.814375 9.4225 -9.62875 8.845 -9.4375 8.25 C-8.95976454 5.79307475 -9.24270636 4.35602466 -10 2 C-3.375 -1.125 -3.375 -1.125 0 0 Z " fill="#0F2647" transform="translate(122,65)"/>
<path d="M0 0 C0.99 0.33 1.98 0.66 3 1 C2.9375 2.75 2.9375 2.75 2 5 C-2.33229933 8.19632367 -6.76442379 10.15140289 -12.1875 10.0625 C-14.0746875 10.0315625 -14.0746875 10.0315625 -16 10 C-16 9.67 -16 9.34 -16 9 C-15.41992188 8.90203125 -14.83984375 8.8040625 -14.2421875 8.703125 C-8.92441477 7.68520151 -5.19944116 6.46453896 -1 3 C-0.67 2.01 -0.34 1.02 0 0 Z " fill="#307DA2" transform="translate(75,77)"/>
<path d="M0 0 C0 0.33 0 0.66 0 1 C-0.67546875 1.04898438 -1.3509375 1.09796875 -2.046875 1.1484375 C-2.93890625 1.22320312 -3.8309375 1.29796875 -4.75 1.375 C-6.07257813 1.47941406 -6.07257813 1.47941406 -7.421875 1.5859375 C-10.02378213 2.00381955 -11.70230572 2.75659754 -14 4 C-16.32873375 4.68255989 -18.66182791 5.35050775 -21 6 C-21.99 6.495 -21.99 6.495 -23 7 C-22.05516204 4.64277539 -21.46869236 3.28163577 -19.2578125 1.953125 C-12.78411576 -0.18106074 -6.77901373 -0.30970113 0 0 Z " fill="#18304C" transform="translate(178,70)"/>
<path d="M0 0 C-2 2 -2 2 -5.6953125 2.1953125 C-7.17200108 2.182009 -8.64862358 2.15814835 -10.125 2.125 C-10.87910156 2.11597656 -11.63320312 2.10695313 -12.41015625 2.09765625 C-14.27357254 2.0740687 -16.13682593 2.03819719 -18 2 C-18 1.34 -18 0.68 -18 0 C-5.33029613 -2.66514806 -5.33029613 -2.66514806 0 0 Z " fill="#103055" transform="translate(136,63)"/>
<path d="M0 0 C2.625 -0.1875 2.625 -0.1875 5 0 C5 0.66 5 1.32 5 2 C4.34 2 3.68 2 3 2 C2.34 4.31 1.68 6.62 1 9 C0.34 9 -0.32 9 -1 9 C-1.33 9.66 -1.66 10.32 -2 11 C-2.25 3.375 -2.25 3.375 0 0 Z " fill="#0F2847" transform="translate(224,67)"/>
<path d="M0 0 C0.99 0.495 0.99 0.495 2 1 C2 2.32 2 3.64 2 5 C2.66 5 3.32 5 4 5 C4.33 7.97 4.66 10.94 5 14 C3.68 13.67 2.36 13.34 1 13 C0.67 8.71 0.34 4.42 0 0 Z " fill="#09294A" transform="translate(359,88)"/>
<path d="M0 0 C0.33 0.99 0.66 1.98 1 3 C1.66 3 2.32 3 3 3 C2.67 5.31 2.34 7.62 2 10 C1.01 10.33 0.02 10.66 -1 11 C-1.73323796 13.01508358 -1.73323796 13.01508358 -2 15 C-1.85879286 13.06215735 -1.71187127 11.12473045 -1.5625 9.1875 C-1.48128906 8.10855469 -1.40007812 7.02960938 -1.31640625 5.91796875 C-1 3 -1 3 0 0 Z " fill="#172F4E" transform="translate(207,81)"/>
<path d="M0 0 C3.0109362 2.0072908 3.63016497 2.83884224 5 6 C4.34 6.66 3.68 7.32 3 8 C2.34 7.01 1.68 6.02 1 5 C-0.98 5.33 -2.96 5.66 -5 6 C-5 6.66 -5 7.32 -5 8 C-5.66 8 -6.32 8 -7 8 C-5.98823563 4.59679258 -5.35156418 3.24274669 -2.375 1.1875 C-1.59125 0.795625 -0.8075 0.40375 0 0 Z " fill="#112844" transform="translate(136,84)"/>
<path d="M0 0 C0.33 0 0.66 0 1 0 C1.12117188 0.60328125 1.24234375 1.2065625 1.3671875 1.828125 C1.53476563 2.62734375 1.70234375 3.4265625 1.875 4.25 C2.03742188 5.03890625 2.19984375 5.8278125 2.3671875 6.640625 C2.99150075 8.96831144 3.84838542 10.89031952 5 13 C3.02 13.33 1.04 13.66 -1 14 C-2.13732426 10.59598052 -1.83989957 8.22543336 -1.0625 4.75 C-0.86785156 3.85796875 -0.67320313 2.9659375 -0.47265625 2.046875 C-0.31667969 1.37140625 -0.16070312 0.6959375 0 0 Z " fill="#03264F" transform="translate(111,76)"/>
<path d="M0 0 C4.62 0 9.24 0 14 0 C13.67 2.64 13.34 5.28 13 8 C12.01 7.67 11.02 7.34 10 7 C10 5.02 10 3.04 10 1 C6.7 1.33 3.4 1.66 0 2 C0 1.34 0 0.68 0 0 Z " fill="#103054" transform="translate(292,53)"/>
<path d="M0 0 C0.66 0 1.32 0 2 0 C2.495 0.804375 2.99 1.60875 3.5 2.4375 C7.17117928 6.20045877 10.92674328 5.89350034 16 6 C15.67 7.32 15.34 8.64 15 10 C15 9.01 15 8.02 15 7 C10.38 7 5.76 7 1 7 C0.34 5.02 -0.32 3.04 -1 1 C-0.67 0.67 -0.34 0.34 0 0 Z " fill="#163456" transform="translate(267,45)"/>
<path d="M0 0 C0.4125 0.37511719 0.825 0.75023438 1.25 1.13671875 C6.09978328 5.43440617 11.19230444 9.09615222 17 12 C17 12.66 17 13.32 17 14 C10.1602984 12.42160732 4.87740434 7.87740434 0 3 C0 2.01 0 1.02 0 0 Z " fill="#247BAD" transform="translate(14,105)"/>
<path d="M0 0 C0.66 0 1.32 0 2 0 C2.19335938 0.89203125 2.38671875 1.7840625 2.5859375 2.703125 C2.84632812 3.87359375 3.10671875 5.0440625 3.375 6.25 C3.63023438 7.41015625 3.88546875 8.5703125 4.1484375 9.765625 C4.85796405 12.46052401 5.63096389 14.59525832 7 17 C4 16 4 16 2.375 13 C0.69701725 8.77429475 0.29639175 4.50719864 0 0 Z " fill="#0C2040" transform="translate(97,78)"/>
<path d="M0 0 C0.99 0 1.98 0 3 0 C3.0544452 2.20805524 3.09299283 4.41650554 3.125 6.625 C3.14820312 7.85476562 3.17140625 9.08453125 3.1953125 10.3515625 C3.0030428 13.94316041 2.30258556 16.66661175 1 20 C0.29763215 17.81485557 -0.10403468 16.40920309 0.46875 14.15625 C1.05547708 11.77482833 1.09850501 9.69834066 1.0625 7.25 C1.04896484 6.05117187 1.04896484 6.05117187 1.03515625 4.828125 C1.02355469 4.22484375 1.01195313 3.6215625 1 3 C0.34 3 -0.32 3 -1 3 C-0.67 2.01 -0.34 1.02 0 0 Z " fill="#41819D" transform="translate(82,77)"/>
<path d="M0 0 C2.64 0 5.28 0 8 0 C8 1.32 8 2.64 8 4 C7.34 4 6.68 4 6 4 C5.71125 4.969375 5.4225 5.93875 5.125 6.9375 C4 10 4 10 2 11 C2.33 7.7 2.66 4.4 3 1 C2.01 0.67 1.02 0.34 0 0 Z " fill="#1C314D" transform="translate(397,51)"/>
<path d="M0 0 C0.33 0 0.66 0 1 0 C1.33 2.64 1.66 5.28 2 8 C1.34 8 0.68 8 0 8 C-0.66 9.32 -1.32 10.64 -2 12 C-2.66 12 -3.32 12 -4 12 C-4.33 12.66 -4.66 13.32 -5 14 C-5 12.35 -5 10.7 -5 9 C-4.34 9 -3.68 9 -3 9 C-2.690625 7.88625 -2.38125 6.7725 -2.0625 5.625 C-1 2 -1 2 0 0 Z " fill="#128ED0" transform="translate(81,90)"/>
<path d="M0 0 C0.68835938 0.63228516 0.68835938 0.63228516 1.390625 1.27734375 C2.00421875 1.82519531 2.6178125 2.37304688 3.25 2.9375 C3.85328125 3.48277344 4.4565625 4.02804688 5.078125 4.58984375 C6.91258981 6.13003521 6.91258981 6.13003521 9.171875 6.50390625 C9.77515625 6.66761719 10.3784375 6.83132812 11 7 C11.33 7.99 11.66 8.98 12 10 C10.02 10.99 10.02 10.99 8 12 C7.87625 11.071875 7.87625 11.071875 7.75 10.125 C7.21351879 7.84276697 7.21351879 7.84276697 5.125 7 C4.42375 6.67 3.7225 6.34 3 6 C0 2.57142857 0 2.57142857 0 0 Z " fill="#1792D6" transform="translate(64,70)"/>
<path d="M0 0 C0.99 0.33 1.98 0.66 3 1 C2.25 3.9375 2.25 3.9375 1 7 C-1.0625 7.6875 -1.0625 7.6875 -3 8 C-3.33 8.99 -3.66 9.98 -4 11 C-4.33 10.34 -4.66 9.68 -5 9 C-4.00390625 6.8359375 -4.00390625 6.8359375 -2.5625 4.375 C-2.08941406 3.55773438 -1.61632812 2.74046875 -1.12890625 1.8984375 C-0.75636719 1.27195313 -0.38382812 0.64546875 0 0 Z " fill="#153053" transform="translate(384,60)"/>
<path d="M0 0 C5.48780488 -0.36585366 5.48780488 -0.36585366 7.75 1.25 C9.0672814 3.09419396 10.07360134 4.93341837 11 7 C8.13275314 6.42655063 7.1385485 6.1385485 5 4 C3.01643517 3.28591666 1.01684563 2.61382258 -1 2 C-0.67 1.34 -0.34 0.68 0 0 Z " fill="#0A2A4F" transform="translate(137,52)"/>
<path d="M0 0 C1.58409994 0.11487748 3.16728963 0.24234508 4.75 0.375 C6.07257813 0.47941406 6.07257813 0.47941406 7.421875 0.5859375 C9.99066382 0.99850055 11.75841015 1.71160957 14 3 C12.41870971 3.22331199 10.83478911 3.42804644 9.25 3.625 C7.92742187 3.79902344 7.92742187 3.79902344 6.578125 3.9765625 C3.77140122 4.00207817 2.36615134 3.44843844 0 2 C0 1.34 0 0.68 0 0 Z " fill="#18324E" transform="translate(159,101)"/>
<path d="M0 0 C2.51669281 1.03248936 4.30139521 2.33808337 6.4375 4 C4.66682584 4.16834933 2.89595388 4.33461909 1.125 4.5 C0.13886719 4.5928125 -0.84726563 4.685625 -1.86328125 4.78125 C-4.5625 5 -4.5625 5 -7.5625 5 C-3.29420732 0 -3.29420732 0 0 0 Z " fill="#132D52" transform="translate(174.5625,77)"/>
<path d="M0 0 C0.33 1.32 0.66 2.64 1 4 C0.01 4 -0.98 4 -2 4 C-2 3.34 -2 2.68 -2 2 C-2.62648437 2.15597656 -3.25296875 2.31195313 -3.8984375 2.47265625 C-4.71570313 2.66730469 -5.53296875 2.86195312 -6.375 3.0625 C-7.59316406 3.35833984 -7.59316406 3.35833984 -8.8359375 3.66015625 C-11 4 -11 4 -13 3 C-8.37802694 0.78145293 -5.23175837 -0.38281159 0 0 Z " fill="#202F48" transform="translate(244,49)"/>
<path d="M0 0 C-2.20374624 2.53430818 -3.71121596 3.40203927 -7 4 C-8.11375 4.2784375 -8.11375 4.2784375 -9.25 4.5625 C-9.8275 4.706875 -10.405 4.85125 -11 5 C-11 5.99 -11 6.98 -11 8 C-11.66 8 -12.32 8 -13 8 C-12.25 5.0625 -12.25 5.0625 -11 2 C-9 1.1875 -9 1.1875 -7 1 C-4.53721199 -0.231394 -2.7204945 -0.07159196 0 0 Z " fill="#0D2953" transform="translate(164,74)"/>
<path d="M0 0 C5.94 0.33 11.88 0.66 18 1 C18 1.33 18 1.66 18 2 C16.51886719 2.07347656 16.51886719 2.07347656 15.0078125 2.1484375 C13.72648438 2.22320312 12.44515625 2.29796875 11.125 2.375 C9.21074219 2.47941406 9.21074219 2.47941406 7.2578125 2.5859375 C3.91938301 2.67241106 3.91938301 2.67241106 2 5 C1.01 4.67 0.02 4.34 -1 4 C-0.67 2.68 -0.34 1.36 0 0 Z " fill="#082349" transform="translate(119,50)"/>
<path d="M0 0 C0.9590625 1.0828125 0.9590625 1.0828125 1.9375 2.1875 C5.40173384 5.69178279 9.65139892 7.77359204 14 10 C13.67 10.66 13.34 11.32 13 12 C7.07439324 9.9852937 3.47130594 7.27689365 0 2 C0 1.34 0 0.68 0 0 Z " fill="#3289B1" transform="translate(31,86)"/>
<path d="M0 0 C0.33 0.66 0.66 1.32 1 2 C0.06553465 4.03144641 -0.93224776 6.03533587 -2 8 C-3.98 8 -5.96 8 -8 8 C-8.33 7.34 -8.66 6.68 -9 6 C-3.25 3 -3.25 3 -1 3 C-0.67 2.01 -0.34 1.02 0 0 Z " fill="#0D2E4E" transform="translate(362,103)"/>
<path d="M0 0 C0.6875 1.5625 0.6875 1.5625 1 4 C0.0421975 6.35096976 -0.96157435 8.68351201 -2 11 C-2.39764263 12.98821313 -2.75455166 14.98732362 -3 17 C-3.33 17 -3.66 17 -4 17 C-4.37484035 11.12750125 -3.25153948 6.43635958 -1 1 C-0.67 0.67 -0.34 0.34 0 0 Z " fill="#3588B5" transform="translate(48,54)"/>
<path d="M0 0 C0.66 0.66 1.32 1.32 2 2 C3.64991582 2.70710678 5.31562256 3.37943989 7 4 C7 4.66 7 5.32 7 6 C7.99 6.33 8.98 6.66 10 7 C6.06225823 7.36630156 4.43460229 7.30233203 1.125 5 C0.42375 4.34 -0.2775 3.68 -1 3 C-0.67 2.01 -0.34 1.02 0 0 Z " fill="#0E223E" transform="translate(152,96)"/>
<path d="M0 0 C1.1446875 0.12375 1.1446875 0.12375 2.3125 0.25 C2.3125 0.91 2.3125 1.57 2.3125 2.25 C0.6625 2.25 -0.9875 2.25 -2.6875 2.25 C-3.0175 4.23 -3.3475 6.21 -3.6875 8.25 C-4.6775 8.25 -5.6675 8.25 -6.6875 8.25 C-5.9168107 3.93413993 -4.72992724 0.43999323 0 0 Z " fill="#21374F" transform="translate(392.6875,49.75)"/>
<path d="M0 0 C0.66 0 1.32 0 2 0 C1.52651586 4.1666604 0.95303159 6.92884715 -2 10 C-2.66 10 -3.32 10 -4 10 C-3.67 8.35 -3.34 6.7 -3 5 C-2.34 5 -1.68 5 -1 5 C-0.67 3.35 -0.34 1.7 0 0 Z " fill="#0E2344" transform="translate(372,106)"/>
<path d="M0 0 C0.185625 0.639375 0.37125 1.27875 0.5625 1.9375 C1.94246056 4.42126213 1.94246056 4.42126213 5.625 4.75 C6.73875 4.8325 7.8525 4.915 9 5 C9 7.83967231 8.59732819 10.23735711 8 13 C7.67 13 7.34 13 7 13 C7 10.69 7 8.38 7 6 C4.69 6 2.38 6 0 6 C0 4.02 0 2.04 0 0 Z " fill="#1A314C" transform="translate(245,58)"/>
<path d="M0 0 C0.99 0.33 1.98 0.66 3 1 C2 4 2 4 0 5 C-1.99960012 5.039992 -4.00047242 5.04346799 -6 5 C-4.59240479 2.18480957 -2.77416723 1.38708362 0 0 Z " fill="#082047" transform="translate(364,116)"/>
<path d="M0 0 C4.95 0.99 4.95 0.99 10 2 C9.67 2.99 9.34 3.98 9 5 C5.625 4.75 5.625 4.75 2 4 C1.34 2.68 0.68 1.36 0 0 Z " fill="#05234A" transform="translate(117,89)"/>
<path d="M0 0 C0.66 0 1.32 0 2 0 C2 0.99 2 1.98 2 3 C-0.93026082 5.7349101 -3.17727085 7.72575695 -7 9 C-7 7 -7 7 -4.625 4.5 C-3.75875 3.675 -2.8925 2.85 -2 2 C-1.34 1.34 -0.68 0.68 0 0 Z " fill="#188DCE" transform="translate(81,83)"/>
<path d="M0 0 C2.76223278 2.76223278 2.57856291 5.20706617 3 9 C3.66 9 4.32 9 5 9 C4.67 10.65 4.34 12.3 4 14 C3.34 14 2.68 14 2 14 C1.66179834 12.4176994 1.32964061 10.83410625 1 9.25 C0.814375 8.36828125 0.62875 7.4865625 0.4375 6.578125 C0 4 0 4 0 0 Z " fill="#1D385D" transform="translate(369,73)"/>
<path d="M0 0 C0 4.0333534 -1.60879918 5.83517538 -4 9 C-4.66 9 -5.32 9 -6 9 C-5.45276317 5.62537285 -4.9451 3.91765 -3 1 C-2.01 0.67 -1.02 0.34 0 0 Z " fill="#0F92D7" transform="translate(35,47)"/>
<path d="M0 0 C3.16115776 1.36983503 3.9927092 1.9890638 6 5 C5.67 5.99 5.34 6.98 5 8 C3 8 3 8 0 7 C0.66 5.68 1.32 4.36 2 3 C1.34 2.01 0.68 1.02 0 0 Z " fill="#193656" transform="translate(145,55)"/>
<path d="M0 0 C2.97 0 5.94 0 9 0 C9 0.99 9 1.98 9 3 C6.03 2.67 3.06 2.34 0 2 C0 1.34 0 0.68 0 0 Z " fill="#203452" transform="translate(176,49)"/>
<path d="M0 0 C1.18414294 3.55242882 0.69535532 4.69830562 -0.4375 8.1875 C-0.72496094 9.08855469 -1.01242187 9.98960938 -1.30859375 10.91796875 C-1.53675781 11.60503906 -1.76492188 12.29210938 -2 13 C-2.99 12.67 -3.98 12.34 -5 12 C-4.34 12 -3.68 12 -3 12 C-3 11.34 -3 10.68 -3 10 C-3.66 9.67 -4.32 9.34 -5 9 C-4.34 9 -3.68 9 -3 9 C-2.87625 8.443125 -2.7525 7.88625 -2.625 7.3125 C-1.94023145 4.77885636 -1.00866237 2.42078968 0 0 Z " fill="#233649" transform="translate(353,30)"/>
<path d="M0 0 C0.33 0.99 0.66 1.98 1 3 C1.66 3 2.32 3 3 3 C2.71125 3.515625 2.4225 4.03125 2.125 4.5625 C0.71219973 7.62356725 -0.1248517 10.74944918 -1 14 C-1.33 14 -1.66 14 -2 14 C-1.03644647 4.58997722 -1.03644647 4.58997722 0 0 Z " fill="#1E3550" transform="translate(251,71)"/>
<path d="M0 0 C0.33 0.99 0.66 1.98 1 3 C0.67 3.66 0.34 4.32 0 5 C-2.31 5 -4.62 5 -7 5 C-6.67 4.01 -6.34 3.02 -6 2 C-2.9375 0.8125 -2.9375 0.8125 0 0 Z " fill="#0891E8" transform="translate(35,43)"/>
<path d="M0 0 C1.32 0 2.64 0 4 0 C4 0.66 4 1.32 4 2 C4.66 2.33 5.32 2.66 6 3 C1.56923077 5.09230769 1.56923077 5.09230769 -1.3125 4.625 C-1.869375 4.41875 -2.42625 4.2125 -3 4 C-2.01 4 -1.02 4 0 4 C0 2.68 0 1.36 0 0 Z " fill="#1D3550" transform="translate(131,99)"/>
<path d="M0 0 C0 0.99 0 1.98 0 3 C-2.5654594 5.5654594 -4.47686668 5.54046087 -8 6 C-8.33 5.34 -8.66 4.68 -9 4 C-7.88625 3.525625 -6.7725 3.05125 -5.625 2.5625 C-3.73289006 1.74693537 -1.84287291 0.92143645 0 0 Z " fill="#0F8ED9" transform="translate(74,92)"/>
<path d="M0 0 C0.33 0 0.66 0 1 0 C1.19294408 4.82360189 0.75747614 8.49646738 -1 13 C-2.18313217 9.00692892 -2.68586362 5.58605961 -1 1.6875 C-0.67 1.130625 -0.34 0.57375 0 0 Z " fill="#243B56" transform="translate(330,74)"/>
<path d="M0 0 C0.66 0.66 1.32 1.32 2 2 C1.625 5.625 1.625 5.625 1 9 C0.01 9.33 -0.98 9.66 -2 10 C-1.85950482 8.52031676 -1.71245174 7.04125484 -1.5625 5.5625 C-1.48128906 4.73878906 -1.40007812 3.91507812 -1.31640625 3.06640625 C-1 1 -1 1 0 0 Z " fill="#0F2041" transform="translate(331,67)"/>
<path d="M0 0 C0.33 0.99 0.66 1.98 1 3 C-4.41538462 7.06153846 -4.41538462 7.06153846 -7.375 6.75 C-7.91125 6.5025 -8.4475 6.255 -9 6 C-7.68 5.67 -6.36 5.34 -5 5 C-5 4.34 -5 3.68 -5 3 C-2.5 1.375 -2.5 1.375 0 0 Z " fill="#152A43" transform="translate(149,61)"/>
<path d="M0 0 C0.33 0.66 0.66 1.32 1 2 C-0.3125 4 -0.3125 4 -2 6 C-2.99 6 -3.98 6 -5 6 C-4.67 4.35 -4.34 2.7 -4 1 C-2.68 0.67 -1.36 0.34 0 0 Z " fill="#08274C" transform="translate(233,52)"/>
<path d="M0 0 C1.485 0.99 1.485 0.99 3 2 C3.375 4.5 3.375 4.5 3 7 C2.01 7.66 1.02 8.32 0 9 C0 6.03 0 3.06 0 0 Z " fill="#052850" transform="translate(257,41)"/>
<path d="M0 0 C0 0.33 0 0.66 0 1 C-1.134375 1.12375 -2.26875 1.2475 -3.4375 1.375 C-5.2009375 1.684375 -5.2009375 1.684375 -7 2 C-7.33 2.66 -7.66 3.32 -8 4 C-10.0625 4.625 -10.0625 4.625 -12 5 C-10.98059612 2.2198076 -10.30279713 1.17185783 -7.6875 -0.3125 C-4.7076274 -1.07479299 -2.9290363 -0.83686751 0 0 Z " fill="#172A40" transform="translate(306,28)"/>
<path d="M0 0 C1.9375 0.3125 1.9375 0.3125 4 1 C5.09658936 4.28976808 4.79953138 5.71303767 4 9 C3.67 9 3.34 9 3 9 C3 7.02 3 5.04 3 3 C2.01 3.33 1.02 3.66 0 4 C0 2.68 0 1.36 0 0 Z " fill="#133553" transform="translate(263,68)"/>
<path d="M0 0 C0 0.66 0 1.32 0 2 C-6.28571429 4.42857143 -6.28571429 4.42857143 -10 3 C-9.34 3 -8.68 3 -8 3 C-8 2.34 -8 1.68 -8 1 C-5.07175348 0.02391783 -3.04386724 -0.08226668 0 0 Z " fill="#217FB0" transform="translate(38,40)"/>
<path d="M0 0 C2.01822917 0.06510417 4.03645833 0.13020833 6.0546875 0.1953125 C6.0546875 0.8553125 6.0546875 1.5153125 6.0546875 2.1953125 C2.47823902 3.4333139 -0.28226016 2.94457321 -3.9453125 2.1953125 C-1.9453125 0.1953125 -1.9453125 0.1953125 0 0 Z " fill="#132D47" transform="translate(343.9453125,39.8046875)"/>
<path d="M0 0 C0.33 0.99 0.66 1.98 1 3 C2.98 3 4.96 3 7 3 C7.33 3.66 7.66 4.32 8 5 C5.03 5 2.06 5 -1 5 C-0.67 3.35 -0.34 1.7 0 0 Z " fill="#0C2542" transform="translate(344,116)"/>
<path d="M0 0 C1.485 0.99 1.485 0.99 3 2 C2.6875 4.875 2.6875 4.875 2 8 C1.01 8.66 0.02 9.32 -1 10 C-0.67 6.7 -0.34 3.4 0 0 Z " fill="#14344F" transform="translate(316,69)"/>
<path d="M0 0 C0.33 0.99 0.66 1.98 1 3 C-1.49064888 3.68707555 -3.37886292 4 -6 4 C-6.33 3.34 -6.66 2.68 -7 2 C-4.69 1.34 -2.38 0.68 0 0 Z " fill="#08244D" transform="translate(273,90)"/>
<path d="M0 0 C0.99 0 1.98 0 3 0 C2.71872579 1.48117801 2.42466268 2.95993249 2.125 4.4375 C1.96257812 5.26121094 1.80015625 6.08492188 1.6328125 6.93359375 C1.31957031 7.95646484 1.31957031 7.95646484 1 9 C0.01 9.495 0.01 9.495 -1 10 C-0.67 6.7 -0.34 3.4 0 0 Z " fill="#072652" transform="translate(329,64)"/>
<path d="M0 0 C0.33 0 0.66 0 1 0 C1.36923077 5.53846154 1.36923077 5.53846154 -0.5 7.875 C-1.2425 8.431875 -1.2425 8.431875 -2 9 C-3 6 -3 6 -1.5625 2.8125 C-1.046875 1.884375 -0.53125 0.95625 0 0 Z " fill="#162A49" transform="translate(310,34)"/>
</svg>
